<svg xmlns="http://www.w3.org/2000/svg" viewBox="0 0 400 400" height="400" width="400" stroke-width="1"><g transform="scale(2)"><defs></defs><path d="M188.709 110.451a40.014 40.014 0 0 1-4.965 5.513l2.353-30.8L45.942 52.288 40.186 53.6l143.542 33.656-3.366 31.022a34.42 34.42 0 0 1-8.478 4.5c-10.771 3.867-144.792-30.91-144.892-30.93v.184c.515 33.613-11.142 55.545-11.142 55.545l146.561 35.667c10.868-1.952 19.5-13.931 19.5-13.931 4.5-16.164 6.742-55.019 6.948-58.775a.1.1 0 0 0-.15-.087zM58.383 143.538a14.582 14.582 0 0 1-11.611 4.922c-7.258-.25-13.9-5.735-15.985-12.7-4.28-14.277 9.981-29.1 19.34-23.167l3.1.65c5 1.111 8.055 6.337 9.009 11.378 1.483 7.746-.785 15.246-3.853 18.917zm45.505-10.326a285.75 285.75 0 0 0-21.243-5.112c.152-1.577.3-3.16.45-4.737.1.033 20.6 3.8 21.232 4.331.145.126.125-.118-.439 5.518zM152 163.323a14.582 14.582 0 0 1-11.611 4.922c-7.258-.25-13.9-5.735-15.985-12.695-4.28-14.277 9.979-29.105 19.341-23.168l3.1.651c5 1.111 8.055 6.337 9.009 11.378 1.484 7.748-.789 15.248-3.854 18.912z" fill="#d1a9ff"></path><path d="M164.279 107.459c-1.1-.1-7.269-1.194-6.4-2.168.321-.362.948-.385 1.409-.456a14.739 14.739 0 0 1 9.773 2.006c-.968.959-3.426.741-4.782.618z" fill="#ac47f5"></path><path d="M181.077 49.226c-.488 36.128-21.932 47.018-27.244 49.164-4.754-13.166-14.38-52.015 22.506-83.438 0 0-20.061-2.787-44.3 13.1 0 0 .277-13.373 10.868-22.572 0 0-25.319 4.2-45.12 23.921l3.081.93a.419.419 0 0 1-.222.808c-1.176-.353-2.355-.713-3.531-1.066-.266.272-.532.553-.8.83a.407.407 0 0 1-.537.553C84.548 43.5 75.517 60.9 74.7 85.847c23.178 4.591 56.043 11.188 80.722 16.505a57.709 57.709 0 0 1-1.458-3.62A49.979 49.979 0 0 0 175.2 92.5c28.966-16.731 5.875-43.174 5.877-43.274zm-56.992-11.747a.423.423 0 0 1-.515.293 22.572 22.572 0 0 0-3.57-.981.424.424 0 0 1-.293-.515.432.432 0 0 1 .515-.293 22.692 22.692 0 0 1 3.567.981.428.428 0 0 1 .296.515zm7.9 1.225a117.851 117.851 0 0 0-11.585-3.339c-.525-.119-.3-.927.223-.807a114.869 114.869 0 0 1 11.588 3.342c.504.176.289.979-.223.8z" fill="#fee253"></path><path d="m46.36 80.291-19.3 11.578c3.182.824 134.088 34.768 144.827 30.914 11.735-4.212 15.8-11.227 16.8-12.321C191.764 108.884 49.907 81 46.36 80.291zm3.865 7.952c-2.839 1.046-6.147-.8-6.087-1.263l.341-2.775c5.637 2.216 6.765.357 6.765.357-.506 3.664-.244 3.398-1.019 3.681zm10.028 2.228c-2.992 1.1-6.138-.864-6.087-1.263l.341-2.775c5.637 2.216 6.765.358 6.765.358-.507 3.669-.246 3.396-1.019 3.68zM70.839 92.7c-2.8 1.034-6.148-.782-6.087-1.263l.341-2.775c5.638 2.217 6.765.357 6.765.357-.504 3.655-.243 3.402-1.019 3.681zm98.2 19.6c-.168.694-.4.716-1.111.976-5.255 1.92-11.336-1.471-11.226-2.336l.634-5.111c10.386 4.081 12.462.655 12.462.655-.856 6.536-.698 5.565-.76 5.816zM26.857 91.994l.138.043v-.13z" fill="#fcafb7"></path><path d="M39.937 53.654c-.16.035-.164.017-.006.06z" fill="#d1a9ff"></path><path d="M39.953 53.546c-.413 2.757 1.3-9.506-4.6 33.575l4.6-2.651 2.5-25.352 136.656 31.207-2.764 31.347 3.957-2.846 3.426-31.57z" fill="#ac47f5"></path><path d="M65.906 87.928c-2.611.457.981 1.965 4.283 1.887a1.8 1.8 0 0 0 1.6-.667 8.258 8.258 0 0 0-5.883-1.22zm-6.306-.341a1.8 1.8 0 0 0 1.605-.667 8.259 8.259 0 0 0-5.887-1.214c-2.637.463 1.034 1.958 4.282 1.881zm-10.031-2.228a1.8 1.8 0 0 0 1.6-.666 8.252 8.252 0 0 0-5.886-1.215c-2.624.461 1.024 1.958 4.286 1.881zm-30.241-5.594c-3.545 2.1-5.123 6.212-5.307 10.169a25.128 25.128 0 0 0 .163 3.935c.059.526.9.537.835 0a18.206 18.206 0 0 1 .612-8.12 9.822 9.822 0 0 1 4.12-5.258.42.42 0 0 0-.423-.726z" fill="#ac47f5"></path><path d="M20.163 73.277c-3.78.184-7.63 4.277-9.584 7.583a21.053 21.053 0 0 0-1.74 17.855c.19.5 1 .282.808-.222a20.316 20.316 0 0 1 4.477-20.907c1.594-1.621 3.67-3.361 6.039-3.474.537-.028.542-.862 0-.835zm167.289 96.702a9.615 9.615 0 0 0 1.869-10.418c-.216-.493-.937-.065-.72.423a8.762 8.762 0 0 1-1.74 9.405c-.374.384.216.975.591.59z" fill="#ac47f5"></path><path d="M191.273 151.083a.418.418 0 0 0-.591.591 16.765 16.765 0 0 1-3.778 24.04c-.439.3-.022 1.03.422.721a17.591 17.591 0 0 0 3.947-25.352zM11.116 140.969c.314-.434-.407-.857-.721-.423a6.818 6.818 0 0 0 1.561 9.258c.439.315.856-.412.423-.721a5.979 5.979 0 0 1-1.263-8.114z" fill="#ac47f5"></path><path d="M6.779 139.863c.233-.5.515-1.16 1.112-1.3.525-.119.3-.927-.223-.808-1.16.261-1.669 1.686-2.016 2.684a12.263 12.263 0 0 0 3.464 13.1c.406.347 1-.244.59-.591a11.409 11.409 0 0 1-2.927-13.085zm138.365-14.012c-11.952-4.186-21.907 2.97-25.412 14.706-3.609 12.147.754 26.289 13.844 30.2 5.313 1.582 11.058 2.569 16.376.487 8.635-3.382 13.41-13.426 13.28-22.327-.151-10.417-8.576-19.735-18.088-23.066zM152 163.323a14.582 14.582 0 0 1-11.611 4.922c-7.257-.25-13.9-5.735-15.985-12.695-4.28-14.277 9.979-29.105 19.341-23.168l3.1.651c5 1.111 8.055 6.336 9.009 11.378 1.484 7.748-.789 15.248-3.854 18.912z" fill="#ac47f5"></path><path d="M11.544 131.39c1.251-1.353-2.317-6.563-3.388-8.066q3.5-2.356 7.014-4.715c1.186 1.605 3.213 4.445 3.654 6.375a2.322 2.322 0 0 0-2.917 1.072 1.721 1.721 0 0 0 1.751 2.57c3.561-.42 1.881-4.934-.054-7.957a45.586 45.586 0 0 0-3.664-4.944.418.418 0 0 0-.5-.065c-1.294.8-7.786 5.251-7.73 5.659-.383.643 1.622.912 4.559 7.133a1.753 1.753 0 0 0-1.914 1.025 1.8 1.8 0 0 0 1.55 2.455 1.959 1.959 0 0 0 1.639-.542zm4.992-4.341c-.1-1.012.962-1.808 2.374-1.155-.031 2.252-2.251 2.341-2.374 1.155zm-1.865-9.112-7 4.71c-.287-.4-.58-.8-.873-1.192a65.168 65.168 0 0 1 6.765-4.895c.371.455.751.911 1.108 1.377zm-5.534 12.624a.951.951 0 0 1 .309-1.187c.545-.379 1.477-.045 1.577 1.063.077.981-1.551.748-1.886.124zm67.724 2.739a260.083 260.083 0 0 0 30.773 5.133.413.413 0 0 0 .4-.309 88.469 88.469 0 0 0 1.766-11.954 3.552 3.552 0 0 0 .016-1.014c-.152-.693-.792-.828-1.393-.953-26.95-5.664-29.859-6.63-30.073-5.3l-1.724 12.884a.418.418 0 0 0 .835 0l1.675-12.51a12.162 12.162 0 0 1 3.875.422c27.142 5.764 25.912 5.3 25.986 5.67a79.252 79.252 0 0 1-1.707 12.18 255.91 255.91 0 0 1-30.214-5.068c-.513-.109-.74.698-.215.819zm94.584-9.6c.483 6.053-.475 8.747-9.232 58.135-.092.526.711.754.808.223 9.226-51.963 9.718-52.591 9.264-58.358-.049-.527-.885-.533-.84 0zm-96.551-19.846c-15.394-3.9-31.718-7.028-45.023-12.126-.5-.194-.721.613-.223.808 13.631 5.236 31.188 8.574 45.018 12.131.526.125.748-.681.228-.813z" fill="#1d1d1b"></path><path d="M169.829 123.877c.532.066.532-.774 0-.834-12.136-1.429-24.05-3.572-35.976-6.011-5.941-1.215-54.98-11.617-55.739-11.758-.526-.1-.754.711-.223.808 5.99 1.111 36.969 7.741 37.516 7.865-.781 6.44-3.269 28.583-3.756 33.217q-15.559-3.456-30.984-7.67c-8.657-2.372-8.64-2.472-8.841-2.472 1.426-9.082 2.594-19.488 3.252-29.97.033-.537-.8-.537-.835 0a331.6 331.6 0 0 1-6.043 45.554c-.108.526.7.748.808.223q1.521-7.464 2.694-14.994a660.858 660.858 0 0 0 39.868 10.164 3870.44 3870.44 0 0 0-1.583 15.606c-.054.537.786.531.835 0 .629-6.478 4.971-45.923 5.405-49.479 16.654 3.644 35.927 7.744 53.602 9.751zm-55.913-16.944a.435.435 0 0 0 .472-.19 16 16 0 0 1 5.22-5.756c.433-.288.049-.976-.39-.738-.1-.056-28.622-6.541-35.543-8.195-.52-.125-.748.677-.222.807q-3.578 1.594-7 3.5c-.189.107-.375 1.347.076 1.5a198.824 198.824 0 0 0 37.387 9.072zm-37.065-9.849c.583-.292 3.537-2.011 7.941-3.908 4.141.992 31.119 7.171 33.531 7.7a16.841 16.841 0 0 0-4.515 5.2 198.485 198.485 0 0 1-36.957-8.992zm-23.504 15.763c-.526-.12-.748.688-.222.807 9.345 2.126 11.59 17.893 6.5 27.293a13.366 13.366 0 0 1-7.946 6.45c-12.234 3.719-25.538-9.122-19.9-24.1 2.463-6.55 9.05-12.9 15.747-11.334a8 8 0 0 1 2.395.992c.456.287.879-.439.423-.721-5.04-3.139-13.4-.766-18.186 8.218-3.263 6.131-3.539 13.822.228 19.8 3.594 5.7 10.288 9.42 17.091 8.477 8.437-1.159 12.511-7.656 13.475-16.153a24.443 24.443 0 0 0-1.3-11.529c-1.5-3.84-4.252-7.303-8.305-8.2z" fill="#1d1d1b"></path><path d="M152.3 163.615c4.316-5.157 5.87-15.371 2.971-22.782-1.5-3.851-4.253-7.305-8.305-8.2-.526-.12-.748.688-.222.807 9.219 2.1 11.669 17.748 6.5 27.293-3.36 6.218-10.884 8.563-17.519 6.185a17.821 17.821 0 0 1-11.481-14.061c-1.91-13.3 10.891-25.336 19.3-20.116.456.287.879-.439.423-.721-3.333-2.076-7.561-1.534-10.835.358-8.87 5.126-13.017 18.31-7.123 27.656 6.501 10.322 19.951 11.157 26.291 3.581zm-26.16-57.528c.1.026 17.922 4.564 18.3 4.586.8.049 1.307-.591 1.822-1.095l1.946-1.9c.385-.374-.206-.965-.591-.59-.537.52-2.125 2.07-2.385 2.325-.646.631-.732.445-1.816.178-.358-.092-15.4-3.892-17.059-4.308a.415.415 0 0 0-.217.804zm19.053-.146a.492.492 0 0 0 .894.011c.266-.6-.52-.775-.922-.884l-15.036-4a.419.419 0 0 0-.222.807c6.516 1.746 14.632 3.888 15.286 4.066zm-36.372 59.03a332.755 332.755 0 0 1-35.8-8.727c-.515-.158-.738.651-.223.808a332.91 332.91 0 0 0 35.792 8.732c.535.086.762-.715.231-.813zm3.746-119.241c-1.093 3.055 1.22 6.094 3.5 5.946 1.535-.093 3.056-1.534 2.911-4.412a.418.418 0 0 0-.835 0c0 1.574-.342 3.235-1.892 3.55-1.8.36-3.808-2.247-2.867-4.862.169-.504-.637-.726-.817-.222zm-12.462-19.276c.016.537.851.537.835 0-.114-3.745-3.02-6.391-5.811-8.478-.434-.319-.846.4-.423.721 2.542 1.903 5.294 4.342 5.399 7.757zm-.624 1.268c.25.478 1 .114.754-.363-1.74-3.322-5.508-4.434-8.928-5.09-.526-.1-.585.732-.065.835 3.106.596 6.658 1.589 8.239 4.618zm53.35 13.536a9.054 9.054 0 0 1 3.49-1.1c3.751-.778 7.729-1.307 11.161.417.477.239.906-.482.423-.721-3.7-1.864-7.805-1.33-11.806-.5a9.5 9.5 0 0 0-3.691 1.176c-.434.316-.017 1.042.423.728zm-.77 2.921a20.783 20.783 0 0 1 10.228 2.83.418.418 0 0 0 .423-.721 21.708 21.708 0 0 0-10.651-2.944.418.418 0 0 0 0 .835zm-1.946 2.813a19.494 19.494 0 0 1 6.537 6.8.418.418 0 0 0 .721-.423 20.508 20.508 0 0 0-6.841-7.1c-.45-.285-.872.44-.417.723zm-48.129-22.099c-.06.531.775.531.835 0a12.362 12.362 0 0 0-2.992-9.454c-.359-.406-.944.19-.591.591a11.575 11.575 0 0 1 2.748 8.863zm50.866 47.191c.054.532.889.537.835 0-.906-9.26-9.658-17.117-22.056-16.646a47.678 47.678 0 0 0-8.662 1.246c-7.686 1.764-15.051 5.622-18.175 12.825a7.072 7.072 0 0 0-.84 3.865 2.352 2.352 0 0 0 2.319 2.066 5.161 5.161 0 0 0 2.754-1.361 10.537 10.537 0 0 0-1.469 4.385c-.124 2.141 2.391 2.7 4.055 2.347a12.455 12.455 0 0 0 5.024-2.981c2.8-2.347.766-1.328.781 1.35.012 2.38 1.964 3.836 4.353 3.7 2.537-.147 4.444-2.077 6.174-3.724L131.262 76c3.1-2.945 4.862-4.412 11.633-3.708.536.054.53-.78 0-.835-8.844-.929-9.839 1.852-16.5 8.012a11.552 11.552 0 0 1-2.927 2.13c-1.718.8-4.434.618-5.09-1.5-.827-2.7 1.984-5.133 3.209-7.323.222-.4-.347-.889-.656-.5a36.133 36.133 0 0 1-3.854 4.076c-1.8 1.615-4.528 4.011-6.928 3.735-.769-.087-1.707-.488-1.756-1.372a6.636 6.636 0 0 1 .564-2.488 17.136 17.136 0 0 1 2.624-4.434 22.066 22.066 0 0 0 2.2-2.656c.276-.385-.347-.862-.655-.5a61.086 61.086 0 0 0-2.223 2.672 19.506 19.506 0 0 1-3.225 2.721 2.477 2.477 0 0 1-1.767.58 1.5 1.5 0 0 1-1.03-.959c-.455-1.144.135-2.537.585-3.594 2.837-6.739 9.633-10.519 16.744-12.305 7.794-1.952 15.732-2.459 22.555 1.833a17.153 17.153 0 0 1 8.087 12.499zm-71.063 5.188c1.087.713 3.439 1.725 4.244.732a2.831 2.831 0 0 0 .407-1.5 10.423 10.423 0 0 0-.58-4.287 17.114 17.114 0 0 0 4.417 4.287c1.128.716 2.982 1.632 4.185.559a2.946 2.946 0 0 0 .575-2.483 16.32 16.32 0 0 0-.407-2.8c-.517-2.212-.945-2.241-.271-1.659a10.091 10.091 0 0 0 4.1 2.4 2.863 2.863 0 0 0 3.155-2.114c.531-1.626-.2-3.307-.905-4.76A54.386 54.386 0 0 0 81.68 44.076c-.45-.3-.872.429-.422.721a53.581 53.581 0 0 1 17.584 19.075 20.152 20.152 0 0 1 1.93 4.158c.336 1.214.222 2.862-1.041 3.518a2.611 2.611 0 0 1-2.423-.326 15.376 15.376 0 0 1-4.787-4.369 16.477 16.477 0 0 0-.558-.813c-.314-.422-1.014-.043-.721.423 2.973 4.011 3.2 8.864 2.873 9.654-.238.575-.911.629-1.453.542a5.426 5.426 0 0 1-1.973-.878c-2.824-1.791-4.81-4.833-6.607-7.654a.418.418 0 0 0-.721.423c1.219 2.46 2.456 5.008 2.255 7.762-.027.358-.006 1.2-.472 1.263a5.25 5.25 0 0 1-2.694-.875 29.676 29.676 0 0 1-4.553-4.06c-9.44-9.866-18.5-27.748-5.144-29.656a11.364 11.364 0 0 1 7.155 1.339.418.418 0 0 0 .423-.721 11.923 11.923 0 0 0-12.17.212c-3.788 2.629-3.274 8.006-2.038 11.86 2.535 7.911 10.898 18.476 15.666 21.598zm105.354 34.463c-3.308 4.709-8.4 7.811-13.443 10.636-.472.26-.049.986.422.721 5.226-2.927 10.309-6.022 13.741-10.934.315-.444-.412-.858-.72-.423zm-27.212-7.816c-.937.09-2.227.152-2.829 1-1.675 2.348 7.463 3.4 7.567 3.4 1.708.125 4.358.363 5.377-1.388a.422.422 0 0 0-.152-.569 15.817 15.817 0 0 0-9.963-2.443zm4.348 3.54c-1.1-.1-7.269-1.194-6.4-2.168.321-.362.948-.385 1.409-.456a14.739 14.739 0 0 1 9.773 2.006c-.968.959-3.426.741-4.782.618zM69.1 90.211c1.025.07 2.439.162 3.052-.851a.422.422 0 0 0-.152-.569 8.723 8.723 0 0 0-4.934-1.391c-.683.016-1.7.016-2.189.569-1.209 1.372 2.459 2.113 4.223 2.242zm-2.526-1.952a7.706 7.706 0 0 1 4.515.965 5.68 5.68 0 0 1-2.347.114 10.849 10.849 0 0 1-3.2-.835 2.2 2.2 0 0 1 1.031-.244zm-8.061-.282c1.024.071 2.439.163 3.052-.851a.422.422 0 0 0-.152-.569 8.739 8.739 0 0 0-4.933-1.388c-.683.017-1.7.017-2.19.57-1.206 1.367 2.45 2.108 4.223 2.238zm-2.532-1.946A7.712 7.712 0 0 1 60.5 87a5.68 5.68 0 0 1-2.347.114 10.85 10.85 0 0 1-3.2-.835 2.124 2.124 0 0 1 1.028-.248zm-7.502-.282c1.025.071 2.44.163 3.052-.851a.422.422 0 0 0-.152-.569 8.729 8.729 0 0 0-4.932-1.387c-.683.016-1.7.016-2.19.569-1.207 1.367 2.448 2.108 4.222 2.238zM45.953 83.8a7.692 7.692 0 0 1 4.516.965 5.68 5.68 0 0 1-2.347.114 10.85 10.85 0 0 1-3.2-.835 2.127 2.127 0 0 1 1.031-.244zm5.773 43.894a67.242 67.242 0 0 0-8.32-3.221.436.436 0 0 0-.6-.167.417.417 0 0 0-.352.634 38.339 38.339 0 0 1-3.193 7.069 1.751 1.751 0 0 0-1.94-1.036 1.914 1.914 0 0 0 .363 3.734c.71 0 1.171-.617 1.545-1.137a27.963 27.963 0 0 0 3.16-6.131q3.9 1.65 7.784 3.3c-.656 1.814-1.991 5.148-3.344 6.537a2.365 2.365 0 0 0-2.217-1.881 1.775 1.775 0 0 0-1.6 2.726 2.483 2.483 0 0 0 3.415.494.4.4 0 0 0 .542-.358 10.855 10.855 0 0 0 2.76-4.233 43.254 43.254 0 0 0 1.311-3.209.341.341 0 0 0 .109-.32c.276-.775.536-1.551.769-2.342a.419.419 0 0 0-.192-.459zm-14.879 4.569a.942.942 0 0 1 1.153-.428.961.961 0 0 1 .515 1.209.425.425 0 0 0-.016.141 3.006 3.006 0 0 1-.455.515c-.769.671-1.514-.775-1.197-1.437zm6.759 5.241c-.563-1.259 2.042-2.207 2.494.375-1.157.709-2.165.359-2.494-.379zm-.916-10.829q.269-.693.521-1.383a64.714 64.714 0 0 1 7.794 2.993 46.472 46.472 0 0 1-.542 1.685q-3.887-1.65-7.773-3.295zM25.252 159.74c-1.56-.713-8.541-3.6-8.922-3.388-.327-.021-1.37 4.249-3.545 7.7a1.751 1.751 0 0 0-1.94-1.036 1.915 1.915 0 0 0 .363 3.735c.71 0 1.171-.618 1.545-1.138a27.974 27.974 0 0 0 3.165-6.131q3.9 1.65 7.784 3.3c-.656 1.812-1.99 5.147-3.344 6.536a2.364 2.364 0 0 0-2.217-1.88 1.774 1.774 0 0 0-1.6 2.726c1.691 2.465 4.611.482 6.716-4.1a45.176 45.176 0 0 0 2.19-5.87.406.406 0 0 0-.195-.454zm-14.879 4.56a.942.942 0 0 1 1.155-.428c.608.232.879 1.136.043 1.864-.764.676-1.512-.771-1.198-1.436zm6.765 5.242c-.562-1.261 2.042-2.208 2.493.374-1.155.714-2.166.364-2.493-.37zm-.922-10.831q.268-.69.521-1.382a64.714 64.714 0 0 1 7.794 2.993c-.173.563-.346 1.127-.542 1.685q-3.889-1.637-7.773-3.292z" fill="#1d1d1b"></path><path d="M151.887 150.281a44.764 44.764 0 0 0-1.745-6.017.431.431 0 0 0-.515-.292c-1 .2-9.036 2.184-9.155 2.634-.215.22 1.46 4.086 1.794 8.266a1.709 1.709 0 0 0-2.109.244 1.809 1.809 0 0 0 .623 2.922 1.842 1.842 0 0 0 1.789-.044 1.755 1.755 0 0 0 .607-1.523 27.492 27.492 0 0 0-1.116-7.138l8.206-2c.556 1.915 1.5 5.274 1.215 7.247a2.334 2.334 0 0 0-3.02-.1 1.743 1.743 0 0 0 .57 3.085c3.177.972 3.748-3.082 2.856-7.284zm-11.4 6.261a.94.94 0 0 1 .613-1.063c.629-.228 1.434.331 1.193 1.459-.211.976-1.637.303-1.806-.396zm1.351-8.012-.407-1.42a65.514 65.514 0 0 1 8.039-2.244c.2.553.4 1.111.569 1.675q-4.098.984-8.201 1.989zm7.377 8.223c-1.592-.565.18-3.15 2.049-1.279-.453 1.16-1.34 1.531-2.049 1.279zM129.593 186.5a44.655 44.655 0 0 0-1.746-6.018.432.432 0 0 0-.515-.292c-1.023.21-9.036 2.185-9.156 2.634-.2.209 1.456 4.1 1.8 8.266a1.709 1.709 0 0 0-2.108.244 1.808 1.808 0 0 0 .623 2.922 1.84 1.84 0 0 0 1.788-.043 1.761 1.761 0 0 0 .608-1.524 27.507 27.507 0 0 0-1.117-7.138l8.207-2c.558 1.93 1.5 5.273 1.214 7.247-2.959-2.2-5.271 2.12-2.451 2.987 3.168.97 3.742-3.114 2.853-7.285zm-11.393 6.267a.938.938 0 0 1 .613-1.062c.634-.231 1.435.337 1.192 1.459-.213.969-1.639.297-1.805-.397zm1.35-8.017-.406-1.42a65.642 65.642 0 0 1 8.039-2.244c.2.553.395 1.111.569 1.675q-4.109.992-8.204 1.989zm7.378 8.223c-1.576-.562.179-3.149 2.049-1.279-.458 1.165-1.346 1.531-2.051 1.279zm22.872-13.426c-.3-.072-2.171 3.683-5.188 6.7a1.743 1.743 0 0 0-1.686-1.442 1.916 1.916 0 0 0-.477 3.714c.732.184 1.361-.38 1.86-.825a28.484 28.484 0 0 0 4.385-5.181q3.414 2.487 6.835 4.975c-1.128 1.7-3.032 4.51-4.737 5.617-.221-3.605-4.779-2.644-3.942-.13.818 2.453 3.951 2.224 7.486-2.358a45.4 45.4 0 0 0 3.475-5.237.414.414 0 0 0-.065-.5c-1.38-1.08-7.521-5.472-7.946-5.333zM142.174 186a.935.935 0 0 1 1.246-.217c.518.337.655 1.21-.3 1.805-.898.534-1.386-.958-.946-1.588zm6.1 5.6c1.2-.31 1.745.91 1.681 1.919-2.181.725-3.101-1.559-1.678-1.919zm.889-9.768c.277-.407.548-.819.819-1.231a65.617 65.617 0 0 1 6.911 4.673q-.439.764-.911 1.523-3.396-2.484-6.816-4.968zM92.473 26.384s-5.573 8.358-1.117 13.372 20.061 5.572 25.075-1.67a14.85 14.85 0 0 0 12.262 12.262c11.144 2.228 19.5-5.014 21.731-8.635-8.106-2.169-52.636-13.913-57.951-15.329zM96.31 31.3c-.364.624-.905-.374-3.626-.737a.419.419 0 0 1 .222-.808 11.39 11.39 0 0 1 3.258.976.417.417 0 0 1 .146.569zm4.334-.165q-3.9-1.181-7.8-2.345a.419.419 0 0 1 .222-.807q3.9 1.17 7.8 2.344c.515.157.293.964-.222.808zm23.441 6.344a.423.423 0 0 1-.515.293 22.572 22.572 0 0 0-3.57-.981.424.424 0 0 1-.293-.515.432.432 0 0 1 .515-.293 22.692 22.692 0 0 1 3.567.981.428.428 0 0 1 .296.515zm7.9 1.225a117.851 117.851 0 0 0-11.585-3.339c-.525-.119-.3-.927.223-.807a114.869 114.869 0 0 1 11.588 3.342c.504.176.289.979-.223.8zM86.2 125.959a2.527 2.527 0 0 0 0 1.881.4.4 0 0 0 .591.249 1.729 1.729 0 0 0 2.731-1.257 1.748 1.748 0 0 0-3.322-.873zm2.483.775a.913.913 0 1 1-1.8-.255.913.913 0 0 1 1.801.255zm8.885 2.966a1.879 1.879 0 0 0 2.889.5 1.6 1.6 0 0 0 .325-2.168 2.028 2.028 0 0 0-3.046-.244.41.41 0 0 0-.526.4 2.283 2.283 0 0 0-.011.271 3.287 3.287 0 0 0-.374.9.418.418 0 0 0 .743.341zm1.409-1.638a.061.061 0 0 0 .022-.005c.874-.109 1.64.745 1.03 1.4-.736.8-1.793.264-1.973-.781a1.5 1.5 0 0 1 .921-.614z" fill="#1d1d1b"></path><path d="M108.994 125.368c-.074-.369 1.156.094-25.986-5.67a12.162 12.162 0 0 0-3.875-.422C77.217 133.6 77.48 131.5 77.4 132.555a256.013 256.013 0 0 0 29.889 4.993 79.252 79.252 0 0 0 1.705-12.18zm-5.106 7.844a285.75 285.75 0 0 0-21.243-5.112c.152-1.577.3-3.16.45-4.737.1.033 20.6 3.8 21.232 4.331.145.126.125-.118-.439 5.518z" fill="#ac47f5"></path><path d="M81.778 128.42a.417.417 0 0 0 .309.4c7.658 1.528 15.33 3.4 22.056 5.313a.428.428 0 0 0 .532-.4c.1-1.03.568-5.674.568-5.816.006-.97-.889-1.117-1.647-1.29a414.909 414.909 0 0 0-20.924-4.282.425.425 0 0 0-.379.726c-.174 1.777-.342 3.566-.515 5.349zm22.549-.726c.144.126.125-.118-.439 5.518a285.75 285.75 0 0 0-21.243-5.112c.152-1.577.3-3.16.45-4.737.105.037 20.597 3.798 21.232 4.331z" fill="#1d1d1b"></path><path d="M69.614 129.13c-.152-10.413-8.581-19.734-18.088-23.064-11.942-4.184-21.906 2.961-25.412 14.706-3.61 12.147.754 26.289 13.845 30.2 5.312 1.582 11.057 2.569 16.375.487 8.635-3.384 13.41-13.428 13.28-22.329zm-6.662 3.442c-.964 8.5-5.038 14.994-13.475 16.153-6.8.943-13.5-2.775-17.091-8.477-3.767-5.974-3.491-13.665-.228-19.8 4.791-8.984 13.146-11.357 18.186-8.218a.393.393 0 0 1 .182.447l2.314.486a.418.418 0 0 1 .507-.32c4.053.9 6.805 4.36 8.3 8.2a24.443 24.443 0 0 1 1.305 11.529z" fill="#ac47f5"></path></g></svg>