<svg width="453" height="278" viewBox="0 0 453 278" fill="none" xmlns="http://www.w3.org/2000/svg">
<path d="M53.7018 277.486C48.6974 277.486 45 274.083 45 268.737C45 263.391 48.6974 260 53.7018 260C57.4933 260 60.5314 261.943 61.7442 265.169L58.4471 266.37C57.6935 264.392 55.892 263.25 53.7018 263.25C50.7698 263.25 48.5207 265.299 48.5207 268.737C48.5207 272.176 50.7697 274.236 53.7018 274.236C55.892 274.236 57.6935 273.082 58.4471 271.104L61.7442 272.305C60.5313 275.531 57.4933 277.486 53.7018 277.486ZM74.4966 277.486C69.4922 277.486 65.7948 274.071 65.7948 268.737C65.7948 263.391 69.4922 260 74.4966 260C79.4892 260 83.1866 263.391 83.1866 268.737C83.1866 274.071 79.4892 277.486 74.4966 277.486ZM74.4966 274.248C77.4286 274.248 79.6777 272.187 79.6777 268.737C79.6777 265.299 77.4287 263.25 74.4966 263.25C71.5645 263.25 69.3155 265.299 69.3155 268.737C69.3155 272.187 71.5645 274.248 74.4966 274.248ZM100.378 260.236H103.899V277.251H99.8132L92.2771 265.087V277.251H88.7564V260.236H92.7952L100.378 272.329V260.236ZM122.245 260.236H125.766V277.251H121.68L114.143 265.087V277.251H110.623V260.236H114.662L122.245 272.329V260.236ZM142.357 263.345H136.045V267.207H141.638V270.28H136.045V274.13H142.357V277.251H132.489V260.236H142.357V263.345ZM155.851 277.486C150.846 277.486 147.149 274.083 147.149 268.737C147.149 263.391 150.846 260 155.851 260C159.642 260 162.68 261.943 163.893 265.169L160.596 266.37C159.842 264.392 158.041 263.25 155.851 263.25C152.919 263.25 150.67 265.299 150.67 268.737C150.67 272.176 152.919 274.236 155.851 274.236C158.041 274.236 159.842 273.082 160.596 271.104L163.893 272.305C162.68 275.531 159.642 277.486 155.851 277.486ZM178.977 260.236V263.345H174.938V277.251H171.441V263.345H167.379V260.236H178.977ZM185.642 277.486C184.594 277.486 183.711 276.615 183.711 275.555C183.711 274.495 184.594 273.6 185.642 273.6C186.713 273.6 187.596 274.495 187.596 275.555C187.596 276.615 186.713 277.486 185.642 277.486ZM208.297 277.486C204.647 277.486 201.797 275.732 201.279 272.541L204.929 271.705C205.165 273.612 206.566 274.601 208.438 274.601C209.875 274.601 211.017 273.965 211.005 272.529C210.994 270.927 209.109 270.421 207.037 269.785C204.541 269.008 201.868 268.089 201.868 264.957C201.868 261.79 204.458 260 207.873 260C210.864 260 213.879 261.213 214.561 264.474L211.147 265.322C210.829 263.627 209.687 262.885 208.085 262.885C206.66 262.885 205.448 263.474 205.448 264.875C205.448 266.182 207.12 266.618 209.051 267.195C211.618 267.972 214.656 268.961 214.656 272.352C214.656 275.967 211.629 277.486 208.297 277.486ZM230.964 260.236H234.497V277.251H230.964V270.256H223.77V277.251H220.237V260.236H223.77V267.183H230.964V260.236ZM252.607 277.251L251.371 273.742H244.223L242.987 277.251H239.372L245.636 260.236H249.958L256.222 277.251H252.607ZM245.259 270.786H250.334L247.802 263.568L245.259 270.786ZM270.081 277.251L265.653 269.762H264.629V277.251H261.096V260.236H267.267C271.117 260.236 272.742 262.509 272.742 265.323C272.742 267.607 271.447 269.091 269.139 269.586L274.261 277.251L270.081 277.251ZM264.629 263.167V267.23H266.713C268.597 267.23 269.363 266.429 269.363 265.204C269.363 263.991 268.597 263.167 266.713 263.167L264.629 263.167ZM289.039 263.345H282.728V267.207H288.321V270.28H282.728V274.13H289.039V277.251H279.172V260.236H289.039V263.345ZM296.669 277.486C295.621 277.486 294.738 276.615 294.738 275.555C294.738 274.495 295.621 273.6 296.669 273.6C297.741 273.6 298.624 274.495 298.624 275.555C298.624 276.615 297.741 277.486 296.669 277.486ZM323.54 260.236V263.345H319.501V277.251H316.004V263.345H311.942V260.236H323.54ZM339.26 260.236H342.793V277.251H339.26V270.256H332.065V277.251H328.533V260.236H332.065V267.183H339.26V260.236ZM358.5 277.251L354.073 269.762H353.048V277.251H349.516V260.236H355.686C359.536 260.236 361.161 262.509 361.161 265.323C361.161 267.607 359.866 269.091 357.558 269.586L362.68 277.251L358.5 277.251ZM353.048 263.167V267.23H355.132C357.016 267.23 357.782 266.429 357.782 265.204C357.782 263.991 357.017 263.167 355.132 263.167L353.048 263.167ZM367.591 277.251V260.236H371.123V277.251H367.591ZM388.656 260.236H392.413L386.125 277.251H382.239L375.986 260.236H379.731L384.194 273.129L388.656 260.236ZM407.155 263.345H400.844V267.207H406.437V270.28H400.844V274.13H407.155V277.251H397.288V260.236H407.155V263.345Z" fill="white"/>
<path d="M46.2799 201.926L41.5781 207.434C39.7421 205.553 37.5479 204.075 34.9954 203.001C32.443 201.926 29.7562 201.389 26.9351 201.389C23.2631 201.389 19.9158 202.217 16.8932 203.874C13.8706 205.531 11.5084 207.792 9.80678 210.658C8.06037 213.658 7.18716 216.994 7.18716 220.666C7.18716 224.159 8.12754 227.383 10.0083 230.339C11.7995 233.115 14.2064 235.321 17.229 236.955C20.2517 238.59 23.5094 239.407 27.0022 239.407C30.2264 239.407 33.2266 238.713 36.003 237.324C38.7793 235.936 41.0855 234.011 42.9215 231.548L47.4218 237.66C44.8694 240.526 41.8132 242.754 38.2532 244.344C34.6932 245.933 30.9205 246.728 26.9351 246.728C21.9645 246.728 17.397 245.519 13.2324 243.101C9.15747 240.773 5.95572 237.571 3.62717 233.496C1.20905 229.331 0 224.764 0 219.793C0 215.002 1.27622 210.591 3.82867 206.561C6.24679 202.71 9.52691 199.653 13.669 197.392C17.8112 195.131 22.2556 194 27.0022 194C30.719 194 34.2566 194.716 37.6151 196.149C40.884 197.493 43.7723 199.418 46.2799 201.926ZM103.149 220.196C103.149 216.614 102.231 213.367 100.395 210.457C98.6488 207.635 96.2643 205.419 93.2417 203.807C90.219 202.195 86.9389 201.389 83.4013 201.389C79.7294 201.389 76.3821 202.217 73.3594 203.874C70.3368 205.531 67.9747 207.792 66.273 210.658C64.5266 213.658 63.6534 216.994 63.6534 220.666C63.6534 224.159 64.5938 227.383 66.4745 230.339C68.2657 233.115 70.6726 235.321 73.6953 236.955C76.7179 238.59 79.9868 239.407 83.5021 239.407C87.0173 239.407 90.2862 238.556 93.3088 236.854C96.3315 235.153 98.716 232.869 100.462 230.003C102.254 227.003 103.149 223.734 103.149 220.196ZM110.404 220.599C110.404 225.435 109.15 229.891 106.642 233.966C104.224 237.862 100.944 240.963 96.8017 243.269C92.6595 245.575 88.1927 246.728 83.4013 246.728C78.4307 246.728 73.8632 245.519 69.6987 243.101C65.6237 240.773 62.422 237.571 60.0934 233.496C57.6753 229.331 56.4662 224.764 56.4662 219.793C56.4662 215.002 57.7425 210.591 60.2949 206.561C62.713 202.71 65.9931 199.653 70.1353 197.392C74.2774 195.131 78.7218 194 83.4685 194C88.3495 194 92.8722 195.187 97.0368 197.56C101.112 199.889 104.336 203.046 106.709 207.031C109.172 211.195 110.404 215.718 110.404 220.599ZM124.956 202.531L119.112 195.478H128.583L160.757 233.764V195.478H168.146V245.586H160.892L132.143 211.128V245.586H124.956V202.531ZM186.057 202.531L180.213 195.478H189.684L221.858 233.764V195.478H229.247V245.586H221.993L193.244 211.128V245.586H186.057V202.531ZM253.002 225.503V238.265H283.9V245.586H245.68V195.478H280.944V202.866H253.002V218.047C254.39 217.241 255.935 216.703 257.636 216.435C258.89 216.211 260.502 216.099 262.472 216.099H273.421V223.555H262.472C260.636 223.555 259.024 223.667 257.636 223.891C255.935 224.204 254.39 224.741 253.002 225.503ZM340.232 201.926L335.53 207.434C333.694 205.553 331.499 204.075 328.947 203.001C326.395 201.926 323.708 201.389 320.887 201.389C317.215 201.389 313.867 202.217 310.845 203.874C307.822 205.531 305.46 207.792 303.758 210.658C302.012 213.658 301.139 216.994 301.139 220.666C301.139 224.159 302.079 227.383 303.96 230.339C305.751 233.115 308.158 235.321 311.181 236.955C314.203 238.59 317.461 239.407 320.954 239.407C324.178 239.407 327.178 238.713 329.955 237.324C332.731 235.936 335.037 234.011 336.873 231.548L341.373 237.66C338.821 240.526 335.765 242.754 332.205 244.344C328.645 245.933 324.872 246.728 320.887 246.728C315.916 246.728 311.349 245.519 307.184 243.101C303.109 240.773 299.907 237.571 297.579 233.496C295.161 229.331 293.952 224.764 293.952 219.793C293.952 215.002 295.228 210.591 297.78 206.561C300.198 202.71 303.478 199.653 307.621 197.392C311.763 195.131 316.207 194 320.954 194C324.671 194 328.208 194.716 331.567 196.149C334.836 197.493 337.724 199.418 340.232 201.926ZM391.056 202.866H373.39V245.586H366.27V202.866H348.403V195.478H391.056V202.866ZM445.439 220.196C445.439 216.614 444.522 213.367 442.686 210.457C440.939 207.635 438.555 205.419 435.532 203.807C432.509 202.195 429.229 201.389 425.692 201.389C422.02 201.389 418.672 202.217 415.65 203.874C412.627 205.531 410.265 207.792 408.563 210.658C406.817 213.658 405.944 216.994 405.944 220.666C405.944 224.159 406.884 227.383 408.765 230.339C410.556 233.115 412.963 235.321 415.986 236.955C419.008 238.59 422.277 239.407 425.792 239.407C429.308 239.407 432.576 238.556 435.599 236.854C438.622 235.153 441.006 232.869 442.753 230.003C444.544 227.003 445.439 223.734 445.439 220.196ZM452.694 220.599C452.694 225.435 451.44 229.891 448.932 233.966C446.514 237.862 443.234 240.963 439.092 243.269C434.95 245.575 430.483 246.728 425.692 246.728C420.721 246.728 416.153 245.519 411.989 243.101C407.914 240.773 404.712 237.571 402.384 233.496C399.966 229.331 398.757 224.764 398.757 219.793C398.757 215.002 400.033 210.591 402.585 206.561C405.003 202.71 408.283 199.653 412.426 197.392C416.568 195.131 421.012 194 425.759 194C430.64 194 435.163 195.187 439.327 197.56C443.402 199.889 446.626 203.046 449 207.031C451.462 211.195 452.694 215.718 452.694 220.599Z" fill="white"/>
<mask id="path-3-inside-1_1_9" fill="white">
<path d="M316.078 90.5322C316.078 78.8101 308.658 68.2721 296.842 60.9357C299.978 47.4252 297.787 34.7609 289.517 26.4888C281.245 18.2168 268.576 16.025 255.066 19.1655C247.731 7.39096 237.209 0 225.51 0C213.806 0 203.283 7.39533 195.947 19.1786C182.436 16.0425 169.772 18.2299 161.5 26.5019C153.226 34.7761 151.034 47.4513 154.179 60.9684C142.395 68.3026 135 78.8253 135 90.5301C135 102.235 142.398 112.76 154.179 120.096C151.062 133.585 153.26 146.221 161.522 154.482C169.787 162.747 182.438 164.943 195.936 161.816C203.27 173.608 213.799 181.012 225.51 181.012C237.206 181.012 247.723 173.628 255.057 161.864C268.58 165.013 281.264 162.824 289.541 154.547C297.808 146.28 300 133.622 296.866 120.118C308.669 112.781 316.078 102.248 316.078 90.5322ZM281.646 34.3552C287.046 39.7551 289.153 47.6215 288.333 56.5347C281.456 53.6058 273.638 51.6015 265.244 50.7968C264.435 42.3874 262.419 34.5515 259.473 27.6665C268.386 26.8509 276.251 28.9598 281.646 34.3552ZM264.254 106.542C268.336 103.729 272.308 100.466 276.056 96.7172C276.434 96.3421 276.791 95.9582 277.158 95.5788C281.674 102.331 284.882 109.259 286.723 115.894C280.737 119.278 273.579 121.906 265.625 123.481C265.634 122.933 265.654 122.388 265.654 121.836C265.651 116.537 265.15 111.418 264.254 106.542ZM260.16 112.873C260.16 116.851 259.911 120.733 259.44 124.484C255.724 124.946 251.879 125.188 247.941 125.188C246.7 125.188 245.478 125.138 244.259 125.088C246.357 121.601 248.128 118.059 249.554 114.52C253.074 113.102 256.597 111.342 260.064 109.259C260.108 110.457 260.16 111.654 260.16 112.873ZM185.398 123.461C177.453 121.88 170.306 119.252 164.326 115.872C166.158 109.248 169.351 102.326 173.852 95.5853C174.219 95.9691 174.581 96.3551 174.958 96.7303C178.707 100.481 182.683 103.744 186.767 106.557C185.873 111.429 185.372 116.541 185.372 121.836C185.369 122.382 185.387 122.92 185.398 123.461ZM186.765 74.444C182.687 77.2573 178.722 80.5155 174.98 84.2579C174.594 84.6439 174.225 85.0364 173.85 85.4268C169.357 78.7032 166.167 71.8007 164.328 65.1927C170.306 61.8102 177.455 59.1822 185.398 57.6011C185.389 58.1267 185.372 58.6501 185.372 59.1801C185.372 64.4687 185.871 69.5741 186.765 74.444ZM190.859 68.1369C190.859 64.183 191.103 60.3207 191.57 56.5935C195.305 56.1268 199.172 55.8782 203.135 55.8782C204.345 55.8782 205.531 55.9306 206.722 55.9764C204.648 59.4309 202.897 62.9399 201.484 66.4467C197.957 67.8665 194.429 69.6308 190.955 71.7201C190.911 70.5337 190.859 69.3473 190.859 68.1369ZM260.062 71.7615C256.594 69.6788 253.07 67.9188 249.548 66.5012C248.13 62.9791 246.37 59.4548 244.288 55.9851C245.498 55.9371 246.706 55.8848 247.941 55.8848C251.886 55.8848 255.733 56.129 259.451 56.5914C259.918 60.3185 260.162 64.1808 260.162 68.1369C260.162 69.3604 260.11 70.5598 260.062 71.7615ZM258.093 87.3874C256.743 84.6221 255.26 82.005 253.615 79.6235C255.092 82.9951 256.344 86.6459 257.355 90.5082C256.344 94.3684 255.094 98.0192 253.617 101.391C255.262 99.0093 256.743 96.3944 258.093 93.6291C258.869 97.1621 259.419 100.867 259.763 104.682C256.821 107.135 253.812 109.366 250.765 111.316C251.766 108.407 252.568 105.508 253.088 102.662C251.746 106.088 250.05 109.556 248.034 113.002C244.591 115.017 241.125 116.714 237.699 118.053C240.545 117.534 243.442 116.731 246.351 115.73C244.39 118.796 242.142 121.823 239.673 124.781C235.865 124.434 232.171 123.882 228.644 123.104C231.403 121.756 234.014 120.277 236.389 118.637C233.026 120.109 229.384 121.357 225.532 122.366C221.685 121.357 218.047 120.109 214.689 118.639C217.062 120.279 219.67 121.754 222.424 123.099C218.881 123.88 215.162 124.432 211.335 124.778C208.873 121.826 206.635 118.807 204.683 115.747C207.586 116.746 210.478 117.547 213.317 118.066C209.898 116.729 206.441 115.034 203.004 113.026C200.997 109.593 199.309 106.136 197.97 102.721C198.489 105.558 199.292 108.446 200.286 111.344C197.227 109.39 194.206 107.15 191.253 104.686C191.598 100.865 192.15 97.1533 192.928 93.6138C194.278 96.3813 195.759 99.0005 197.406 101.382C195.929 98.0104 194.677 94.3553 193.665 90.493C194.675 86.6328 195.927 82.9821 197.403 79.6148C195.759 81.9941 194.278 84.6112 192.93 87.3743C192.152 83.8326 191.602 80.1164 191.258 76.2912C194.206 73.8311 197.22 71.5936 200.278 69.6395C199.277 72.5488 198.472 75.4515 197.951 78.2976C199.29 74.8692 200.991 71.3995 203.006 67.9537C206.45 65.9386 209.915 64.2419 213.341 62.905C210.495 63.424 207.599 64.2266 204.692 65.2298C206.633 62.194 208.855 59.1975 211.298 56.2664C215.145 56.6132 218.878 57.1671 222.438 57.9522C219.679 59.3 217.068 60.7764 214.693 62.4186C218.056 60.9466 221.698 59.6969 225.55 58.6894C229.399 59.6969 233.037 60.9466 236.397 62.4165C234.025 60.7765 231.414 59.3 228.657 57.9544C232.195 57.1758 235.904 56.6241 239.725 56.2773C242.181 59.2237 244.412 62.2355 246.362 65.2887C243.459 64.292 240.567 63.4895 237.728 62.9726C241.145 64.3095 244.604 66.0018 248.041 68.0104C250.05 71.4453 251.738 74.8998 253.077 78.3172C252.558 75.4799 251.757 72.5902 250.761 69.6875C253.812 71.6372 256.823 73.8704 259.772 76.3261C259.419 80.1491 258.869 83.8544 258.093 87.3874ZM263.211 79.3596C264.099 80.1796 264.989 80.9953 265.859 81.8655C268.648 84.6548 271.195 87.5466 273.498 90.5039C271.191 93.4699 268.637 96.3726 265.837 99.1728C264.973 100.036 264.092 100.846 263.211 101.659C262.232 97.7356 260.984 94.002 259.499 90.5104C260.987 87.0167 262.232 83.283 263.211 79.3596ZM187.805 101.67C186.924 100.856 186.041 100.047 185.18 99.1837C182.377 96.3813 179.819 93.472 177.507 90.5017C179.823 87.5205 182.388 84.6024 185.197 81.7957C186.052 80.9386 186.929 80.136 187.803 79.3291C188.782 83.2612 190.03 87.0058 191.519 90.5039C190.032 93.9998 188.785 97.74 187.805 101.67ZM258.448 50.4217C257.933 50.413 257.421 50.3955 256.904 50.3955C251.589 50.3955 246.462 50.8993 241.573 51.8022C238.755 47.7087 235.484 43.7242 231.726 39.9666C231.344 39.5871 230.956 39.2251 230.574 38.8544C237.309 34.3509 244.222 31.1537 250.843 29.3131C254.23 35.3017 256.865 42.4615 258.448 50.4217ZM234.184 50.1796C235.056 51.052 235.876 51.9461 236.7 52.8381C232.773 53.8173 229.035 55.0648 225.541 56.5565C222.028 55.0582 218.27 53.8064 214.318 52.825C215.14 51.933 215.963 51.0411 216.835 50.1687C219.631 47.3707 222.536 44.8147 225.502 42.5073C228.472 44.8169 231.381 47.3772 234.184 50.1796ZM219.291 39.9492C215.531 43.709 212.259 47.6912 209.44 51.7869C204.572 50.8928 199.464 50.3933 194.174 50.3933C193.637 50.3933 193.107 50.4108 192.573 50.4217C194.152 42.4681 196.784 35.3104 200.169 29.3261C206.783 31.1624 213.692 34.3574 220.422 38.8522C220.045 39.2186 219.664 39.574 219.291 39.9492ZM190.952 109.272C194.429 111.362 197.96 113.126 201.49 114.546C202.908 118.074 204.672 121.605 206.759 125.079C205.558 125.127 204.358 125.18 203.135 125.18C199.172 125.18 195.305 124.933 191.572 124.467C191.101 120.722 190.852 116.844 190.852 112.873C190.854 111.658 190.904 110.468 190.952 109.272ZM192.581 130.647C193.111 130.658 193.639 130.675 194.174 130.675C199.48 130.675 204.598 130.174 209.479 129.271C212.294 133.358 215.559 137.334 219.312 141.087C219.677 141.451 220.045 141.796 220.412 142.149C213.681 146.644 206.772 149.832 200.156 151.666C196.784 145.702 194.16 138.57 192.581 130.647ZM216.852 130.87C215.987 130.006 215.173 129.116 214.357 128.233C218.292 127.252 222.034 126.002 225.534 124.51C229.015 125.995 232.738 127.241 236.65 128.22C235.85 129.086 235.054 129.956 234.206 130.804C231.392 133.615 228.47 136.187 225.484 138.505C222.529 136.202 219.64 133.657 216.852 130.87ZM231.748 141.024C235.484 137.29 238.733 133.332 241.542 129.264C246.438 130.167 251.578 130.673 256.902 130.673C257.414 130.673 257.922 130.656 258.431 130.647C256.847 138.592 254.215 145.737 250.83 151.712C244.211 149.869 237.298 146.67 230.566 142.164C230.96 141.787 231.36 141.416 231.748 141.024ZM277.153 85.4312C276.796 85.0604 276.447 84.6875 276.08 84.3211C272.323 80.5657 268.343 77.2965 264.251 74.4789C265.15 69.6003 265.654 64.4818 265.654 59.1779C265.654 58.6457 265.636 58.1223 265.625 57.5946C273.566 59.167 280.71 61.7884 286.693 65.1622C284.852 71.7811 281.655 78.6945 277.153 85.4312ZM225.51 11.129C233.141 11.129 240.19 15.1963 245.915 22.0748C238.969 24.8619 232.012 28.9467 225.5 34.3182C218.99 28.9532 212.035 24.8728 205.097 22.0878C210.818 15.2007 217.873 11.129 225.51 11.129ZM169.366 34.3705C174.762 28.975 182.626 26.8661 191.539 27.6839C188.599 34.5668 186.586 42.3983 185.777 50.8033C177.379 51.6124 169.556 53.6232 162.68 56.563C161.857 47.6411 163.964 39.7703 169.366 34.3705ZM146.125 90.5322C146.125 82.897 150.198 75.8419 157.086 70.1171C159.871 77.0523 163.947 84.0027 169.309 90.5104C163.94 97.0312 159.86 103.997 157.079 110.945C150.196 105.218 146.125 98.1675 146.125 90.5322ZM169.386 146.618C164.003 141.233 161.892 133.397 162.695 124.512C169.569 127.448 177.387 129.459 185.782 130.268C186.593 138.642 188.599 146.445 191.526 153.306C182.626 154.115 174.777 152.007 169.386 146.618ZM225.51 169.888C217.871 169.888 210.809 165.811 205.082 158.916C212.024 156.137 218.981 152.057 225.493 146.694C232.003 152.07 238.962 156.157 245.906 158.946C240.185 165.822 233.137 169.888 225.51 169.888ZM281.677 146.681C276.272 152.087 268.395 154.192 259.467 153.365C262.409 146.491 264.424 138.668 265.237 130.27C273.642 129.465 281.474 127.457 288.361 124.519C289.177 133.428 287.072 141.285 281.677 146.681ZM293.968 110.976C291.176 104.014 287.083 97.0356 281.694 90.5061C287.07 83.9874 291.155 77.0217 293.942 70.0713C300.862 75.8048 304.955 82.8774 304.955 90.5322C304.955 98.1805 300.873 105.244 293.968 110.976Z"/>
</mask>
<path d="M316.078 90.5322C316.078 78.8101 308.658 68.2721 296.842 60.9357C299.978 47.4252 297.787 34.7609 289.517 26.4888C281.245 18.2168 268.576 16.025 255.066 19.1655C247.731 7.39096 237.209 0 225.51 0C213.806 0 203.283 7.39533 195.947 19.1786C182.436 16.0425 169.772 18.2299 161.5 26.5019C153.226 34.7761 151.034 47.4513 154.179 60.9684C142.395 68.3026 135 78.8253 135 90.5301C135 102.235 142.398 112.76 154.179 120.096C151.062 133.585 153.26 146.221 161.522 154.482C169.787 162.747 182.438 164.943 195.936 161.816C203.27 173.608 213.799 181.012 225.51 181.012C237.206 181.012 247.723 173.628 255.057 161.864C268.58 165.013 281.264 162.824 289.541 154.547C297.808 146.28 300 133.622 296.866 120.118C308.669 112.781 316.078 102.248 316.078 90.5322ZM281.646 34.3552C287.046 39.7551 289.153 47.6215 288.333 56.5347C281.456 53.6058 273.638 51.6015 265.244 50.7968C264.435 42.3874 262.419 34.5515 259.473 27.6665C268.386 26.8509 276.251 28.9598 281.646 34.3552ZM264.254 106.542C268.336 103.729 272.308 100.466 276.056 96.7172C276.434 96.3421 276.791 95.9582 277.158 95.5788C281.674 102.331 284.882 109.259 286.723 115.894C280.737 119.278 273.579 121.906 265.625 123.481C265.634 122.933 265.654 122.388 265.654 121.836C265.651 116.537 265.15 111.418 264.254 106.542ZM260.16 112.873C260.16 116.851 259.911 120.733 259.44 124.484C255.724 124.946 251.879 125.188 247.941 125.188C246.7 125.188 245.478 125.138 244.259 125.088C246.357 121.601 248.128 118.059 249.554 114.52C253.074 113.102 256.597 111.342 260.064 109.259C260.108 110.457 260.16 111.654 260.16 112.873ZM185.398 123.461C177.453 121.88 170.306 119.252 164.326 115.872C166.158 109.248 169.351 102.326 173.852 95.5853C174.219 95.9691 174.581 96.3551 174.958 96.7303C178.707 100.481 182.683 103.744 186.767 106.557C185.873 111.429 185.372 116.541 185.372 121.836C185.369 122.382 185.387 122.92 185.398 123.461ZM186.765 74.444C182.687 77.2573 178.722 80.5155 174.98 84.2579C174.594 84.6439 174.225 85.0364 173.85 85.4268C169.357 78.7032 166.167 71.8007 164.328 65.1927C170.306 61.8102 177.455 59.1822 185.398 57.6011C185.389 58.1267 185.372 58.6501 185.372 59.1801C185.372 64.4687 185.871 69.5741 186.765 74.444ZM190.859 68.1369C190.859 64.183 191.103 60.3207 191.57 56.5935C195.305 56.1268 199.172 55.8782 203.135 55.8782C204.345 55.8782 205.531 55.9306 206.722 55.9764C204.648 59.4309 202.897 62.9399 201.484 66.4467C197.957 67.8665 194.429 69.6308 190.955 71.7201C190.911 70.5337 190.859 69.3473 190.859 68.1369ZM260.062 71.7615C256.594 69.6788 253.07 67.9188 249.548 66.5012C248.13 62.9791 246.37 59.4548 244.288 55.9851C245.498 55.9371 246.706 55.8848 247.941 55.8848C251.886 55.8848 255.733 56.129 259.451 56.5914C259.918 60.3185 260.162 64.1808 260.162 68.1369C260.162 69.3604 260.11 70.5598 260.062 71.7615ZM258.093 87.3874C256.743 84.6221 255.26 82.005 253.615 79.6235C255.092 82.9951 256.344 86.6459 257.355 90.5082C256.344 94.3684 255.094 98.0192 253.617 101.391C255.262 99.0093 256.743 96.3944 258.093 93.6291C258.869 97.1621 259.419 100.867 259.763 104.682C256.821 107.135 253.812 109.366 250.765 111.316C251.766 108.407 252.568 105.508 253.088 102.662C251.746 106.088 250.05 109.556 248.034 113.002C244.591 115.017 241.125 116.714 237.699 118.053C240.545 117.534 243.442 116.731 246.351 115.73C244.39 118.796 242.142 121.823 239.673 124.781C235.865 124.434 232.171 123.882 228.644 123.104C231.403 121.756 234.014 120.277 236.389 118.637C233.026 120.109 229.384 121.357 225.532 122.366C221.685 121.357 218.047 120.109 214.689 118.639C217.062 120.279 219.67 121.754 222.424 123.099C218.881 123.88 215.162 124.432 211.335 124.778C208.873 121.826 206.635 118.807 204.683 115.747C207.586 116.746 210.478 117.547 213.317 118.066C209.898 116.729 206.441 115.034 203.004 113.026C200.997 109.593 199.309 106.136 197.97 102.721C198.489 105.558 199.292 108.446 200.286 111.344C197.227 109.39 194.206 107.15 191.253 104.686C191.598 100.865 192.15 97.1533 192.928 93.6138C194.278 96.3813 195.759 99.0005 197.406 101.382C195.929 98.0104 194.677 94.3553 193.665 90.493C194.675 86.6328 195.927 82.9821 197.403 79.6148C195.759 81.9941 194.278 84.6112 192.93 87.3743C192.152 83.8326 191.602 80.1164 191.258 76.2912C194.206 73.8311 197.22 71.5936 200.278 69.6395C199.277 72.5488 198.472 75.4515 197.951 78.2976C199.29 74.8692 200.991 71.3995 203.006 67.9537C206.45 65.9386 209.915 64.2419 213.341 62.905C210.495 63.424 207.599 64.2266 204.692 65.2298C206.633 62.194 208.855 59.1975 211.298 56.2664C215.145 56.6132 218.878 57.1671 222.438 57.9522C219.679 59.3 217.068 60.7764 214.693 62.4186C218.056 60.9466 221.698 59.6969 225.55 58.6894C229.399 59.6969 233.037 60.9466 236.397 62.4165C234.025 60.7765 231.414 59.3 228.657 57.9544C232.195 57.1758 235.904 56.6241 239.725 56.2773C242.181 59.2237 244.412 62.2355 246.362 65.2887C243.459 64.292 240.567 63.4895 237.728 62.9726C241.145 64.3095 244.604 66.0018 248.041 68.0104C250.05 71.4453 251.738 74.8998 253.077 78.3172C252.558 75.4799 251.757 72.5902 250.761 69.6875C253.812 71.6372 256.823 73.8704 259.772 76.3261C259.419 80.1491 258.869 83.8544 258.093 87.3874ZM263.211 79.3596C264.099 80.1796 264.989 80.9953 265.859 81.8655C268.648 84.6548 271.195 87.5466 273.498 90.5039C271.191 93.4699 268.637 96.3726 265.837 99.1728C264.973 100.036 264.092 100.846 263.211 101.659C262.232 97.7356 260.984 94.002 259.499 90.5104C260.987 87.0167 262.232 83.283 263.211 79.3596ZM187.805 101.67C186.924 100.856 186.041 100.047 185.18 99.1837C182.377 96.3813 179.819 93.472 177.507 90.5017C179.823 87.5205 182.388 84.6024 185.197 81.7957C186.052 80.9386 186.929 80.136 187.803 79.3291C188.782 83.2612 190.03 87.0058 191.519 90.5039C190.032 93.9998 188.785 97.74 187.805 101.67ZM258.448 50.4217C257.933 50.413 257.421 50.3955 256.904 50.3955C251.589 50.3955 246.462 50.8993 241.573 51.8022C238.755 47.7087 235.484 43.7242 231.726 39.9666C231.344 39.5871 230.956 39.2251 230.574 38.8544C237.309 34.3509 244.222 31.1537 250.843 29.3131C254.23 35.3017 256.865 42.4615 258.448 50.4217ZM234.184 50.1796C235.056 51.052 235.876 51.9461 236.7 52.8381C232.773 53.8173 229.035 55.0648 225.541 56.5565C222.028 55.0582 218.27 53.8064 214.318 52.825C215.14 51.933 215.963 51.0411 216.835 50.1687C219.631 47.3707 222.536 44.8147 225.502 42.5073C228.472 44.8169 231.381 47.3772 234.184 50.1796ZM219.291 39.9492C215.531 43.709 212.259 47.6912 209.44 51.7869C204.572 50.8928 199.464 50.3933 194.174 50.3933C193.637 50.3933 193.107 50.4108 192.573 50.4217C194.152 42.4681 196.784 35.3104 200.169 29.3261C206.783 31.1624 213.692 34.3574 220.422 38.8522C220.045 39.2186 219.664 39.574 219.291 39.9492ZM190.952 109.272C194.429 111.362 197.96 113.126 201.49 114.546C202.908 118.074 204.672 121.605 206.759 125.079C205.558 125.127 204.358 125.18 203.135 125.18C199.172 125.18 195.305 124.933 191.572 124.467C191.101 120.722 190.852 116.844 190.852 112.873C190.854 111.658 190.904 110.468 190.952 109.272ZM192.581 130.647C193.111 130.658 193.639 130.675 194.174 130.675C199.48 130.675 204.598 130.174 209.479 129.271C212.294 133.358 215.559 137.334 219.312 141.087C219.677 141.451 220.045 141.796 220.412 142.149C213.681 146.644 206.772 149.832 200.156 151.666C196.784 145.702 194.16 138.57 192.581 130.647ZM216.852 130.87C215.987 130.006 215.173 129.116 214.357 128.233C218.292 127.252 222.034 126.002 225.534 124.51C229.015 125.995 232.738 127.241 236.65 128.22C235.85 129.086 235.054 129.956 234.206 130.804C231.392 133.615 228.47 136.187 225.484 138.505C222.529 136.202 219.64 133.657 216.852 130.87ZM231.748 141.024C235.484 137.29 238.733 133.332 241.542 129.264C246.438 130.167 251.578 130.673 256.902 130.673C257.414 130.673 257.922 130.656 258.431 130.647C256.847 138.592 254.215 145.737 250.83 151.712C244.211 149.869 237.298 146.67 230.566 142.164C230.96 141.787 231.36 141.416 231.748 141.024ZM277.153 85.4312C276.796 85.0604 276.447 84.6875 276.08 84.3211C272.323 80.5657 268.343 77.2965 264.251 74.4789C265.15 69.6003 265.654 64.4818 265.654 59.1779C265.654 58.6457 265.636 58.1223 265.625 57.5946C273.566 59.167 280.71 61.7884 286.693 65.1622C284.852 71.7811 281.655 78.6945 277.153 85.4312ZM225.51 11.129C233.141 11.129 240.19 15.1963 245.915 22.0748C238.969 24.8619 232.012 28.9467 225.5 34.3182C218.99 28.9532 212.035 24.8728 205.097 22.0878C210.818 15.2007 217.873 11.129 225.51 11.129ZM169.366 34.3705C174.762 28.975 182.626 26.8661 191.539 27.6839C188.599 34.5668 186.586 42.3983 185.777 50.8033C177.379 51.6124 169.556 53.6232 162.68 56.563C161.857 47.6411 163.964 39.7703 169.366 34.3705ZM146.125 90.5322C146.125 82.897 150.198 75.8419 157.086 70.1171C159.871 77.0523 163.947 84.0027 169.309 90.5104C163.94 97.0312 159.86 103.997 157.079 110.945C150.196 105.218 146.125 98.1675 146.125 90.5322ZM169.386 146.618C164.003 141.233 161.892 133.397 162.695 124.512C169.569 127.448 177.387 129.459 185.782 130.268C186.593 138.642 188.599 146.445 191.526 153.306C182.626 154.115 174.777 152.007 169.386 146.618ZM225.51 169.888C217.871 169.888 210.809 165.811 205.082 158.916C212.024 156.137 218.981 152.057 225.493 146.694C232.003 152.07 238.962 156.157 245.906 158.946C240.185 165.822 233.137 169.888 225.51 169.888ZM281.677 146.681C276.272 152.087 268.395 154.192 259.467 153.365C262.409 146.491 264.424 138.668 265.237 130.27C273.642 129.465 281.474 127.457 288.361 124.519C289.177 133.428 287.072 141.285 281.677 146.681ZM293.968 110.976C291.176 104.014 287.083 97.0356 281.694 90.5061C287.07 83.9874 291.155 77.0217 293.942 70.0713C300.862 75.8048 304.955 82.8774 304.955 90.5322C304.955 98.1805 300.873 105.244 293.968 110.976Z" fill="#1D1D1B" stroke="white" stroke-width="2" mask="url(#path-3-inside-1_1_9)"/>
</svg>
