<svg width="182" height="182" viewBox="0 0 182 182" fill="none" xmlns="http://www.w3.org/2000/svg">
<mask id="path-1-inside-1_1_4" fill="white">
<path d="M181.078 90.5322C181.078 78.8101 173.658 68.2721 161.842 60.9357C164.978 47.4252 162.787 34.7609 154.517 26.4888C146.245 18.2168 133.576 16.025 120.066 19.1655C112.731 7.39096 102.209 0 90.5104 0C78.8057 0 68.283 7.39533 60.9466 19.1786C47.4361 16.0425 34.7718 18.2299 26.4997 26.5019C18.2255 34.7761 16.0337 47.4513 19.1786 60.9684C7.39533 68.3026 0 78.8253 0 90.5301C0 102.235 7.39751 112.76 19.1786 120.096C16.0621 133.585 18.2604 146.221 26.5215 154.482C34.787 162.747 47.4383 164.943 60.9357 161.816C68.2699 173.608 78.7992 181.012 90.5104 181.012C102.206 181.012 112.723 173.628 120.057 161.864C133.58 165.013 146.264 162.824 154.541 154.547C162.808 146.28 165 133.622 161.866 120.118C173.669 112.781 181.078 102.248 181.078 90.5322ZM146.646 34.3552C152.046 39.7551 154.153 47.6215 153.333 56.5347C146.456 53.6058 138.638 51.6015 130.244 50.7968C129.435 42.3874 127.419 34.5515 124.473 27.6665C133.386 26.8509 141.251 28.9598 146.646 34.3552ZM129.254 106.542C133.336 103.729 137.308 100.466 141.056 96.7172C141.434 96.3421 141.791 95.9582 142.158 95.5788C146.674 102.331 149.882 109.259 151.723 115.894C145.737 119.278 138.579 121.906 130.625 123.481C130.634 122.933 130.654 122.388 130.654 121.836C130.651 116.537 130.15 111.418 129.254 106.542ZM125.16 112.873C125.16 116.851 124.911 120.733 124.44 124.484C120.724 124.946 116.879 125.188 112.941 125.188C111.7 125.188 110.478 125.138 109.259 125.088C111.357 121.601 113.128 118.059 114.554 114.52C118.074 113.102 121.597 111.342 125.064 109.259C125.108 110.457 125.16 111.654 125.16 112.873ZM50.3977 123.461C42.4528 121.88 35.3061 119.252 29.3261 115.872C31.1581 109.248 34.3509 102.326 38.8522 95.5853C39.2186 95.9691 39.5806 96.3551 39.9579 96.7303C43.7068 100.481 47.6825 103.744 51.7673 106.557C50.8731 111.429 50.3715 116.541 50.3715 121.836C50.3693 122.382 50.3868 122.92 50.3977 123.461ZM51.7651 74.444C47.6869 77.2573 43.7221 80.5155 39.9797 84.2579C39.5937 84.6439 39.2251 85.0364 38.85 85.4268C34.3574 78.7032 31.1668 71.8007 29.3283 65.1927C35.3061 61.8102 42.455 59.1822 50.3977 57.6011C50.389 58.1267 50.3715 58.6501 50.3715 59.1801C50.3715 64.4687 50.8709 69.5741 51.7651 74.444ZM55.8586 68.1369C55.8586 64.183 56.1028 60.3207 56.5696 56.5935C60.3054 56.1268 64.1721 55.8782 68.1347 55.8782C69.3451 55.8782 70.5315 55.9306 71.7222 55.9764C69.6482 59.4309 67.897 62.9399 66.4838 66.4467C62.9573 67.8665 59.4287 69.6308 55.9546 71.7201C55.9109 70.5337 55.8586 69.3473 55.8586 68.1369ZM125.062 71.7615C121.594 69.6788 118.07 67.9188 114.548 66.5012C113.13 62.9791 111.37 59.4548 109.288 55.9851C110.498 55.9371 111.706 55.8848 112.941 55.8848C116.886 55.8848 120.733 56.129 124.451 56.5914C124.918 60.3185 125.162 64.1808 125.162 68.1369C125.162 69.3604 125.11 70.5598 125.062 71.7615ZM123.093 87.3874C121.743 84.6221 120.26 82.005 118.615 79.6235C120.092 82.9951 121.344 86.6459 122.355 90.5082C121.344 94.3684 120.094 98.0192 118.617 101.391C120.262 99.0093 121.743 96.3944 123.093 93.6291C123.869 97.1621 124.419 100.867 124.763 104.682C121.821 107.135 118.812 109.366 115.765 111.316C116.766 108.407 117.568 105.508 118.088 102.662C116.746 106.088 115.05 109.556 113.034 113.002C109.591 115.017 106.125 116.714 102.699 118.053C105.545 117.534 108.442 116.731 111.351 115.73C109.39 118.796 107.142 121.823 104.673 124.781C100.865 124.434 97.1708 123.882 93.6443 123.104C96.4031 121.756 99.0136 120.277 101.389 118.637C98.0257 120.109 94.3836 121.357 90.5322 122.366C86.6852 121.357 83.0475 120.109 79.689 118.639C82.0617 120.279 84.6701 121.754 87.4245 123.099C83.8806 123.88 80.1622 124.432 76.3348 124.778C73.8726 121.826 71.635 118.807 69.6831 115.747C72.5859 116.746 75.4777 117.547 78.3172 118.066C74.8976 116.729 71.4409 115.034 68.0039 113.026C65.9975 109.593 64.3095 106.136 62.9704 102.721C63.4895 105.558 64.292 108.446 65.2865 111.344C62.2267 109.39 59.2062 107.15 56.2533 104.686C56.5979 100.865 57.1497 97.1533 57.9282 93.6138C59.2782 96.3813 60.759 99.0005 62.4056 101.382C60.9291 98.0104 59.6773 94.3553 58.6654 90.493C59.6751 86.6328 60.9269 82.9821 62.4034 79.6148C60.759 81.9941 59.2782 84.6112 57.9304 87.3743C57.1518 83.8326 56.6023 80.1164 56.2577 76.2912C59.2062 73.8311 62.2202 71.5936 65.2778 69.6395C64.2767 72.5488 63.472 75.4515 62.9508 78.2976C64.2898 74.8692 65.9909 71.3995 68.006 67.9537C71.4496 65.9386 74.915 64.2419 78.3412 62.905C75.4951 63.424 72.5989 64.2266 69.6918 65.2298C71.6328 62.194 73.8551 59.1975 76.2977 56.2664C80.1448 56.6132 83.8784 57.1671 87.4376 57.9522C84.6788 59.3 82.0683 60.7764 79.6933 62.4186C83.0562 60.9466 86.6983 59.6969 90.5497 58.6894C94.3989 59.6969 98.0366 60.9466 101.397 62.4165C99.0245 60.7765 96.414 59.3 93.6574 57.9544C97.1948 57.1758 100.904 56.6241 104.725 56.2773C107.181 59.2237 109.412 62.2355 111.362 65.2887C108.459 64.292 105.567 63.4895 102.728 62.9726C106.145 64.3095 109.604 66.0018 113.041 68.0104C115.05 71.4453 116.738 74.8998 118.077 78.3172C117.558 75.4799 116.757 72.5902 115.761 69.6875C118.812 71.6372 121.823 73.8704 124.772 76.3261C124.419 80.1491 123.869 83.8544 123.093 87.3874ZM128.211 79.3596C129.099 80.1796 129.989 80.9953 130.859 81.8655C133.648 84.6548 136.195 87.5466 138.498 90.5039C136.191 93.4699 133.637 96.3726 130.837 99.1728C129.973 100.036 129.092 100.846 128.211 101.659C127.232 97.7356 125.984 94.002 124.499 90.5104C125.987 87.0167 127.232 83.283 128.211 79.3596ZM52.8054 101.67C51.9243 100.856 51.0411 100.047 50.1796 99.1837C47.3772 96.3813 44.819 93.472 42.5073 90.5017C44.8234 87.5205 47.3881 84.6024 50.1971 81.7957C51.052 80.9386 51.9287 80.136 52.8032 79.3291C53.7824 83.2612 55.0299 87.0058 56.5194 90.5039C55.032 93.9998 53.7846 97.74 52.8054 101.67ZM123.448 50.4217C122.933 50.413 122.421 50.3955 121.904 50.3955C116.589 50.3955 111.462 50.8993 106.573 51.8022C103.755 47.7087 100.484 43.7242 96.7259 39.9666C96.3442 39.5871 95.9561 39.2251 95.5744 38.8544C102.309 34.3509 109.222 31.1537 115.843 29.3131C119.23 35.3017 121.865 42.4615 123.448 50.4217ZM99.1837 50.1796C100.056 51.052 100.876 51.9461 101.7 52.8381C97.7727 53.8173 94.0347 55.0648 90.541 56.5565C87.0276 55.0582 83.2699 53.8064 79.3182 52.825C80.1404 51.933 80.9626 51.0411 81.8349 50.1687C84.6308 47.3707 87.5357 44.8147 90.5017 42.5073C93.472 44.8169 96.3813 47.3772 99.1837 50.1796ZM84.2906 39.9492C80.5308 43.709 77.2595 47.6912 74.4396 51.7869C69.5719 50.8928 64.4643 50.3933 59.1735 50.3933C58.637 50.3933 58.1071 50.4108 57.5728 50.4217C59.1517 42.4681 61.784 35.3104 65.1687 29.3261C71.7833 31.1624 78.6923 34.3574 85.4225 38.8522C85.0452 39.2186 84.6635 39.574 84.2906 39.9492ZM55.9524 109.272C59.4287 111.362 62.9595 113.126 66.4903 114.546C67.9079 118.074 69.6722 121.605 71.7593 125.079C70.5576 125.127 69.3582 125.18 68.1347 125.18C64.1721 125.18 60.3054 124.933 56.5717 124.467C56.1007 120.722 55.8521 116.844 55.8521 112.873C55.8542 111.658 55.9044 110.468 55.9524 109.272ZM57.5815 130.647C58.1114 130.658 58.6392 130.675 59.1735 130.675C64.4796 130.675 69.5981 130.174 74.4789 129.271C77.2944 133.358 80.5591 137.334 84.3124 141.087C84.6766 141.451 85.0452 141.796 85.4116 142.149C78.6814 146.644 71.7724 149.832 65.1556 151.666C61.784 145.702 59.1604 138.57 57.5815 130.647ZM81.8524 130.87C80.9866 130.006 80.1731 129.116 79.3575 128.233C83.2917 127.252 87.0341 126.002 90.5344 124.51C94.0151 125.995 97.7378 127.241 101.65 128.22C100.85 129.086 100.054 129.956 99.2055 130.804C96.3922 133.615 93.4699 136.187 90.4843 138.505C87.5292 136.202 84.6395 133.657 81.8524 130.87ZM96.7477 141.024C100.484 137.29 103.733 133.332 106.542 129.264C111.438 130.167 116.578 130.673 121.902 130.673C122.414 130.673 122.922 130.656 123.431 130.647C121.847 138.592 119.215 145.737 115.83 151.712C109.211 149.869 102.298 146.67 95.5657 142.164C95.9604 141.787 96.3595 141.416 96.7477 141.024ZM142.153 85.4312C141.796 85.0604 141.447 84.6875 141.08 84.3211C137.323 80.5657 133.343 77.2965 129.251 74.4789C130.15 69.6003 130.654 64.4818 130.654 59.1779C130.654 58.6457 130.636 58.1223 130.625 57.5946C138.566 59.167 145.71 61.7884 151.693 65.1622C149.852 71.7811 146.655 78.6945 142.153 85.4312ZM90.5104 11.129C98.1413 11.129 105.19 15.1963 110.915 22.0748C103.969 24.8619 97.0116 28.9467 90.4995 34.3182C83.9896 28.9532 77.0348 24.8728 70.0975 22.0878C75.8179 15.2007 82.873 11.129 90.5104 11.129ZM34.3661 34.3705C39.7616 28.975 47.6258 26.8661 56.539 27.6839C53.5992 34.5668 51.5863 42.3983 50.7772 50.8033C42.3786 51.6124 34.5559 53.6232 27.6796 56.563C26.8574 47.6411 28.9641 39.7703 34.3661 34.3705ZM11.1246 90.5322C11.1246 82.897 15.1985 75.8419 22.0857 70.1171C24.8706 77.0523 28.9467 84.0027 34.3094 90.5104C28.9401 97.0312 24.8597 103.997 22.0791 110.945C15.1963 105.218 11.1246 98.1675 11.1246 90.5322ZM34.3858 146.618C29.0034 141.233 26.8923 133.397 27.6949 124.512C34.569 127.448 42.3874 129.459 50.7815 130.268C51.5928 138.642 53.5992 146.445 56.5259 153.306C47.6258 154.115 39.7769 152.007 34.3858 146.618ZM90.5104 169.888C82.8708 169.888 75.8092 165.811 70.0822 158.916C77.0239 156.137 83.9809 152.057 90.493 146.694C97.0029 152.07 103.962 156.157 110.906 158.946C105.185 165.822 98.1369 169.888 90.5104 169.888ZM146.677 146.681C141.272 152.087 133.395 154.192 124.467 153.365C127.409 146.491 129.424 138.668 130.237 130.27C138.642 129.465 146.474 127.457 153.361 124.519C154.177 133.428 152.072 141.285 146.677 146.681ZM158.968 110.976C156.176 104.014 152.083 97.0356 146.694 90.5061C152.07 83.9874 156.155 77.0217 158.942 70.0713C165.862 75.8048 169.955 82.8774 169.955 90.5322C169.955 98.1805 165.873 105.244 158.968 110.976Z"/>
</mask>
<path d="M181.078 90.5322C181.078 78.8101 173.658 68.2721 161.842 60.9357C164.978 47.4252 162.787 34.7609 154.517 26.4888C146.245 18.2168 133.576 16.025 120.066 19.1655C112.731 7.39096 102.209 0 90.5104 0C78.8057 0 68.283 7.39533 60.9466 19.1786C47.4361 16.0425 34.7718 18.2299 26.4997 26.5019C18.2255 34.7761 16.0337 47.4513 19.1786 60.9684C7.39533 68.3026 0 78.8253 0 90.5301C0 102.235 7.39751 112.76 19.1786 120.096C16.0621 133.585 18.2604 146.221 26.5215 154.482C34.787 162.747 47.4383 164.943 60.9357 161.816C68.2699 173.608 78.7992 181.012 90.5104 181.012C102.206 181.012 112.723 173.628 120.057 161.864C133.58 165.013 146.264 162.824 154.541 154.547C162.808 146.28 165 133.622 161.866 120.118C173.669 112.781 181.078 102.248 181.078 90.5322ZM146.646 34.3552C152.046 39.7551 154.153 47.6215 153.333 56.5347C146.456 53.6058 138.638 51.6015 130.244 50.7968C129.435 42.3874 127.419 34.5515 124.473 27.6665C133.386 26.8509 141.251 28.9598 146.646 34.3552ZM129.254 106.542C133.336 103.729 137.308 100.466 141.056 96.7172C141.434 96.3421 141.791 95.9582 142.158 95.5788C146.674 102.331 149.882 109.259 151.723 115.894C145.737 119.278 138.579 121.906 130.625 123.481C130.634 122.933 130.654 122.388 130.654 121.836C130.651 116.537 130.15 111.418 129.254 106.542ZM125.16 112.873C125.16 116.851 124.911 120.733 124.44 124.484C120.724 124.946 116.879 125.188 112.941 125.188C111.7 125.188 110.478 125.138 109.259 125.088C111.357 121.601 113.128 118.059 114.554 114.52C118.074 113.102 121.597 111.342 125.064 109.259C125.108 110.457 125.16 111.654 125.16 112.873ZM50.3977 123.461C42.4528 121.88 35.3061 119.252 29.3261 115.872C31.1581 109.248 34.3509 102.326 38.8522 95.5853C39.2186 95.9691 39.5806 96.3551 39.9579 96.7303C43.7068 100.481 47.6825 103.744 51.7673 106.557C50.8731 111.429 50.3715 116.541 50.3715 121.836C50.3693 122.382 50.3868 122.92 50.3977 123.461ZM51.7651 74.444C47.6869 77.2573 43.7221 80.5155 39.9797 84.2579C39.5937 84.6439 39.2251 85.0364 38.85 85.4268C34.3574 78.7032 31.1668 71.8007 29.3283 65.1927C35.3061 61.8102 42.455 59.1822 50.3977 57.6011C50.389 58.1267 50.3715 58.6501 50.3715 59.1801C50.3715 64.4687 50.8709 69.5741 51.7651 74.444ZM55.8586 68.1369C55.8586 64.183 56.1028 60.3207 56.5696 56.5935C60.3054 56.1268 64.1721 55.8782 68.1347 55.8782C69.3451 55.8782 70.5315 55.9306 71.7222 55.9764C69.6482 59.4309 67.897 62.9399 66.4838 66.4467C62.9573 67.8665 59.4287 69.6308 55.9546 71.7201C55.9109 70.5337 55.8586 69.3473 55.8586 68.1369ZM125.062 71.7615C121.594 69.6788 118.07 67.9188 114.548 66.5012C113.13 62.9791 111.37 59.4548 109.288 55.9851C110.498 55.9371 111.706 55.8848 112.941 55.8848C116.886 55.8848 120.733 56.129 124.451 56.5914C124.918 60.3185 125.162 64.1808 125.162 68.1369C125.162 69.3604 125.11 70.5598 125.062 71.7615ZM123.093 87.3874C121.743 84.6221 120.26 82.005 118.615 79.6235C120.092 82.9951 121.344 86.6459 122.355 90.5082C121.344 94.3684 120.094 98.0192 118.617 101.391C120.262 99.0093 121.743 96.3944 123.093 93.6291C123.869 97.1621 124.419 100.867 124.763 104.682C121.821 107.135 118.812 109.366 115.765 111.316C116.766 108.407 117.568 105.508 118.088 102.662C116.746 106.088 115.05 109.556 113.034 113.002C109.591 115.017 106.125 116.714 102.699 118.053C105.545 117.534 108.442 116.731 111.351 115.73C109.39 118.796 107.142 121.823 104.673 124.781C100.865 124.434 97.1708 123.882 93.6443 123.104C96.4031 121.756 99.0136 120.277 101.389 118.637C98.0257 120.109 94.3836 121.357 90.5322 122.366C86.6852 121.357 83.0475 120.109 79.689 118.639C82.0617 120.279 84.6701 121.754 87.4245 123.099C83.8806 123.88 80.1622 124.432 76.3348 124.778C73.8726 121.826 71.635 118.807 69.6831 115.747C72.5859 116.746 75.4777 117.547 78.3172 118.066C74.8976 116.729 71.4409 115.034 68.0039 113.026C65.9975 109.593 64.3095 106.136 62.9704 102.721C63.4895 105.558 64.292 108.446 65.2865 111.344C62.2267 109.39 59.2062 107.15 56.2533 104.686C56.5979 100.865 57.1497 97.1533 57.9282 93.6138C59.2782 96.3813 60.759 99.0005 62.4056 101.382C60.9291 98.0104 59.6773 94.3553 58.6654 90.493C59.6751 86.6328 60.9269 82.9821 62.4034 79.6148C60.759 81.9941 59.2782 84.6112 57.9304 87.3743C57.1518 83.8326 56.6023 80.1164 56.2577 76.2912C59.2062 73.8311 62.2202 71.5936 65.2778 69.6395C64.2767 72.5488 63.472 75.4515 62.9508 78.2976C64.2898 74.8692 65.9909 71.3995 68.006 67.9537C71.4496 65.9386 74.915 64.2419 78.3412 62.905C75.4951 63.424 72.5989 64.2266 69.6918 65.2298C71.6328 62.194 73.8551 59.1975 76.2977 56.2664C80.1448 56.6132 83.8784 57.1671 87.4376 57.9522C84.6788 59.3 82.0683 60.7764 79.6933 62.4186C83.0562 60.9466 86.6983 59.6969 90.5497 58.6894C94.3989 59.6969 98.0366 60.9466 101.397 62.4165C99.0245 60.7765 96.414 59.3 93.6574 57.9544C97.1948 57.1758 100.904 56.6241 104.725 56.2773C107.181 59.2237 109.412 62.2355 111.362 65.2887C108.459 64.292 105.567 63.4895 102.728 62.9726C106.145 64.3095 109.604 66.0018 113.041 68.0104C115.05 71.4453 116.738 74.8998 118.077 78.3172C117.558 75.4799 116.757 72.5902 115.761 69.6875C118.812 71.6372 121.823 73.8704 124.772 76.3261C124.419 80.1491 123.869 83.8544 123.093 87.3874ZM128.211 79.3596C129.099 80.1796 129.989 80.9953 130.859 81.8655C133.648 84.6548 136.195 87.5466 138.498 90.5039C136.191 93.4699 133.637 96.3726 130.837 99.1728C129.973 100.036 129.092 100.846 128.211 101.659C127.232 97.7356 125.984 94.002 124.499 90.5104C125.987 87.0167 127.232 83.283 128.211 79.3596ZM52.8054 101.67C51.9243 100.856 51.0411 100.047 50.1796 99.1837C47.3772 96.3813 44.819 93.472 42.5073 90.5017C44.8234 87.5205 47.3881 84.6024 50.1971 81.7957C51.052 80.9386 51.9287 80.136 52.8032 79.3291C53.7824 83.2612 55.0299 87.0058 56.5194 90.5039C55.032 93.9998 53.7846 97.74 52.8054 101.67ZM123.448 50.4217C122.933 50.413 122.421 50.3955 121.904 50.3955C116.589 50.3955 111.462 50.8993 106.573 51.8022C103.755 47.7087 100.484 43.7242 96.7259 39.9666C96.3442 39.5871 95.9561 39.2251 95.5744 38.8544C102.309 34.3509 109.222 31.1537 115.843 29.3131C119.23 35.3017 121.865 42.4615 123.448 50.4217ZM99.1837 50.1796C100.056 51.052 100.876 51.9461 101.7 52.8381C97.7727 53.8173 94.0347 55.0648 90.541 56.5565C87.0276 55.0582 83.2699 53.8064 79.3182 52.825C80.1404 51.933 80.9626 51.0411 81.8349 50.1687C84.6308 47.3707 87.5357 44.8147 90.5017 42.5073C93.472 44.8169 96.3813 47.3772 99.1837 50.1796ZM84.2906 39.9492C80.5308 43.709 77.2595 47.6912 74.4396 51.7869C69.5719 50.8928 64.4643 50.3933 59.1735 50.3933C58.637 50.3933 58.1071 50.4108 57.5728 50.4217C59.1517 42.4681 61.784 35.3104 65.1687 29.3261C71.7833 31.1624 78.6923 34.3574 85.4225 38.8522C85.0452 39.2186 84.6635 39.574 84.2906 39.9492ZM55.9524 109.272C59.4287 111.362 62.9595 113.126 66.4903 114.546C67.9079 118.074 69.6722 121.605 71.7593 125.079C70.5576 125.127 69.3582 125.18 68.1347 125.18C64.1721 125.18 60.3054 124.933 56.5717 124.467C56.1007 120.722 55.8521 116.844 55.8521 112.873C55.8542 111.658 55.9044 110.468 55.9524 109.272ZM57.5815 130.647C58.1114 130.658 58.6392 130.675 59.1735 130.675C64.4796 130.675 69.5981 130.174 74.4789 129.271C77.2944 133.358 80.5591 137.334 84.3124 141.087C84.6766 141.451 85.0452 141.796 85.4116 142.149C78.6814 146.644 71.7724 149.832 65.1556 151.666C61.784 145.702 59.1604 138.57 57.5815 130.647ZM81.8524 130.87C80.9866 130.006 80.1731 129.116 79.3575 128.233C83.2917 127.252 87.0341 126.002 90.5344 124.51C94.0151 125.995 97.7378 127.241 101.65 128.22C100.85 129.086 100.054 129.956 99.2055 130.804C96.3922 133.615 93.4699 136.187 90.4843 138.505C87.5292 136.202 84.6395 133.657 81.8524 130.87ZM96.7477 141.024C100.484 137.29 103.733 133.332 106.542 129.264C111.438 130.167 116.578 130.673 121.902 130.673C122.414 130.673 122.922 130.656 123.431 130.647C121.847 138.592 119.215 145.737 115.83 151.712C109.211 149.869 102.298 146.67 95.5657 142.164C95.9604 141.787 96.3595 141.416 96.7477 141.024ZM142.153 85.4312C141.796 85.0604 141.447 84.6875 141.08 84.3211C137.323 80.5657 133.343 77.2965 129.251 74.4789C130.15 69.6003 130.654 64.4818 130.654 59.1779C130.654 58.6457 130.636 58.1223 130.625 57.5946C138.566 59.167 145.71 61.7884 151.693 65.1622C149.852 71.7811 146.655 78.6945 142.153 85.4312ZM90.5104 11.129C98.1413 11.129 105.19 15.1963 110.915 22.0748C103.969 24.8619 97.0116 28.9467 90.4995 34.3182C83.9896 28.9532 77.0348 24.8728 70.0975 22.0878C75.8179 15.2007 82.873 11.129 90.5104 11.129ZM34.3661 34.3705C39.7616 28.975 47.6258 26.8661 56.539 27.6839C53.5992 34.5668 51.5863 42.3983 50.7772 50.8033C42.3786 51.6124 34.5559 53.6232 27.6796 56.563C26.8574 47.6411 28.9641 39.7703 34.3661 34.3705ZM11.1246 90.5322C11.1246 82.897 15.1985 75.8419 22.0857 70.1171C24.8706 77.0523 28.9467 84.0027 34.3094 90.5104C28.9401 97.0312 24.8597 103.997 22.0791 110.945C15.1963 105.218 11.1246 98.1675 11.1246 90.5322ZM34.3858 146.618C29.0034 141.233 26.8923 133.397 27.6949 124.512C34.569 127.448 42.3874 129.459 50.7815 130.268C51.5928 138.642 53.5992 146.445 56.5259 153.306C47.6258 154.115 39.7769 152.007 34.3858 146.618ZM90.5104 169.888C82.8708 169.888 75.8092 165.811 70.0822 158.916C77.0239 156.137 83.9809 152.057 90.493 146.694C97.0029 152.07 103.962 156.157 110.906 158.946C105.185 165.822 98.1369 169.888 90.5104 169.888ZM146.677 146.681C141.272 152.087 133.395 154.192 124.467 153.365C127.409 146.491 129.424 138.668 130.237 130.27C138.642 129.465 146.474 127.457 153.361 124.519C154.177 133.428 152.072 141.285 146.677 146.681ZM158.968 110.976C156.176 104.014 152.083 97.0356 146.694 90.5061C152.07 83.9874 156.155 77.0217 158.942 70.0713C165.862 75.8048 169.955 82.8774 169.955 90.5322C169.955 98.1805 165.873 105.244 158.968 110.976Z" fill="#FEE253" stroke="#1D1D1B" stroke-width="2" mask="url(#path-1-inside-1_1_4)"/>
</svg>
