<svg width="452.69387504527003" height="303.3299926757813" viewBox="0 0 350 234.5194032632024" class="looka-1j8o68f"><defs id="SvgjsDefs1261"></defs><g id="SvgjsG1262" featurekey="symbolFeature-0" transform="matrix(1.6861375570297241,0,0,1.6861375570297241,99.10694618570699,-5.901481479031156)" fill="#ffffff"><path xmlns="http://www.w3.org/2000/svg" d="M86.525,45.012c0-5.375-3.402-10.207-8.82-13.571c1.438-6.195,0.433-12.002-3.359-15.795  c-3.793-3.793-9.602-4.798-15.797-3.358C55.186,6.889,50.361,3.5,44.997,3.5c-5.367,0-10.192,3.391-13.556,8.794  c-6.195-1.438-12.002-0.435-15.795,3.358c-3.794,3.794-4.799,9.606-3.357,15.804c-5.403,3.363-8.794,8.188-8.794,13.555  c0,5.367,3.392,10.193,8.794,13.557c-1.429,6.185-0.421,11.979,3.367,15.767c3.79,3.79,9.591,4.797,15.78,3.363  c3.363,5.407,8.191,8.802,13.561,8.802c5.363,0,10.185-3.386,13.548-8.78c6.201,1.444,12.017,0.44,15.812-3.355  c3.791-3.791,4.796-9.595,3.359-15.787C83.128,55.214,86.525,50.384,86.525,45.012z M70.737,19.253  c2.476,2.476,3.442,6.083,3.066,10.17c-3.153-1.343-6.738-2.262-10.587-2.631c-0.371-3.856-1.295-7.449-2.646-10.606  C64.657,15.812,68.263,16.779,70.737,19.253z M62.762,52.353c1.872-1.29,3.693-2.786,5.412-4.505  c0.173-0.172,0.337-0.348,0.505-0.522c2.071,3.096,3.542,6.273,4.386,9.315c-2.745,1.552-6.027,2.757-9.674,3.479  c0.004-0.251,0.013-0.501,0.013-0.754C63.403,56.936,63.173,54.589,62.762,52.353z M60.885,55.256c0,1.824-0.114,3.604-0.33,5.324  c-1.704,0.212-3.467,0.323-5.273,0.323c-0.569,0-1.129-0.023-1.688-0.046c0.962-1.599,1.774-3.223,2.428-4.846  c1.614-0.65,3.229-1.457,4.819-2.412C60.861,54.148,60.885,54.697,60.885,55.256z M26.604,60.111c-3.643-0.725-6.92-1.93-9.662-3.48  c0.84-3.037,2.304-6.211,4.368-9.302c0.168,0.176,0.334,0.353,0.507,0.525c1.719,1.72,3.542,3.216,5.415,4.506  c-0.41,2.234-0.64,4.578-0.64,7.006C26.591,59.616,26.599,59.863,26.604,60.111z M27.231,37.635c-1.87,1.29-3.688,2.784-5.404,4.5  c-0.177,0.177-0.346,0.357-0.518,0.536c-2.06-3.083-3.523-6.248-4.366-9.278c2.741-1.551,6.019-2.756,9.661-3.481  c-0.004,0.241-0.012,0.481-0.012,0.724C26.592,33.061,26.821,35.402,27.231,37.635z M29.108,34.743c0-1.813,0.112-3.584,0.326-5.293  c1.713-0.214,3.486-0.328,5.303-0.328c0.555,0,1.099,0.024,1.645,0.045c-0.951,1.584-1.754,3.193-2.402,4.801  c-1.617,0.651-3.235,1.46-4.828,2.418C29.132,35.842,29.108,35.298,29.108,34.743z M60.84,36.405  c-1.59-0.955-3.206-1.762-4.821-2.412c-0.65-1.615-1.457-3.231-2.412-4.822c0.555-0.022,1.109-0.046,1.675-0.046  c1.809,0,3.573,0.112,5.278,0.324c0.214,1.709,0.326,3.48,0.326,5.294C60.886,35.304,60.862,35.854,60.84,36.405z M59.937,43.57  c-0.619-1.268-1.299-2.468-2.053-3.56c0.677,1.546,1.251,3.22,1.715,4.991c-0.464,1.77-1.037,3.444-1.714,4.99  c0.754-1.092,1.433-2.291,2.052-3.559c0.356,1.62,0.608,3.319,0.766,5.068c-1.349,1.125-2.729,2.148-4.126,3.042  c0.459-1.334,0.827-2.663,1.065-3.968c-0.615,1.571-1.393,3.161-2.317,4.741c-1.579,0.924-3.168,1.702-4.739,2.316  c1.305-0.238,2.633-0.606,3.967-1.065c-0.899,1.406-1.93,2.794-3.062,4.15c-1.746-0.159-3.44-0.412-5.057-0.769  c1.265-0.618,2.462-1.296,3.551-2.048c-1.542,0.675-3.212,1.247-4.978,1.71c-1.764-0.463-3.432-1.035-4.972-1.709  c1.088,0.752,2.284,1.428,3.547,2.045c-1.625,0.358-3.33,0.611-5.085,0.77c-1.129-1.354-2.155-2.738-3.05-4.141  c1.331,0.458,2.657,0.825,3.959,1.063c-1.568-0.613-3.153-1.39-4.729-2.311c-0.92-1.574-1.694-3.159-2.308-4.725  c0.238,1.301,0.606,2.625,1.062,3.954c-1.403-0.896-2.788-1.923-4.142-3.053c0.158-1.752,0.411-3.454,0.768-5.077  c0.619,1.269,1.298,2.47,2.053,3.562c-0.677-1.546-1.251-3.222-1.715-4.993c0.463-1.77,1.037-3.444,1.714-4.988  c-0.754,1.091-1.433,2.291-2.051,3.558c-0.357-1.624-0.609-3.328-0.767-5.082c1.352-1.128,2.734-2.154,4.136-3.05  c-0.459,1.334-0.828,2.665-1.067,3.97c0.614-1.572,1.394-3.163,2.318-4.743c1.579-0.924,3.168-1.702,4.739-2.315  c-1.305,0.238-2.633,0.606-3.966,1.066c0.89-1.392,1.909-2.766,3.029-4.11c1.764,0.159,3.476,0.413,5.108,0.773  c-1.265,0.618-2.462,1.295-3.551,2.048c1.542-0.675,3.212-1.248,4.978-1.71c1.765,0.462,3.433,1.035,4.974,1.709  c-1.088-0.752-2.285-1.429-3.549-2.046c1.622-0.357,3.323-0.61,5.075-0.769c1.126,1.351,2.149,2.732,3.043,4.132  c-1.331-0.457-2.657-0.825-3.959-1.062c1.567,0.613,3.153,1.389,4.729,2.31c0.921,1.575,1.695,3.159,2.309,4.726  c-0.238-1.301-0.605-2.626-1.062-3.957c1.399,0.894,2.78,1.918,4.132,3.044C60.545,40.251,60.293,41.95,59.937,43.57z   M62.284,39.889c0.407,0.376,0.815,0.75,1.214,1.149c1.279,1.279,2.447,2.605,3.503,3.961c-1.058,1.36-2.229,2.691-3.513,3.975  c-0.396,0.396-0.8,0.767-1.204,1.14c-0.449-1.799-1.021-3.511-1.702-5.112C61.264,43.4,61.835,41.688,62.284,39.889z M27.708,50.119  c-0.404-0.373-0.809-0.744-1.204-1.14c-1.285-1.285-2.458-2.619-3.518-3.981c1.062-1.367,2.238-2.705,3.526-3.992  c0.392-0.393,0.794-0.761,1.195-1.131c0.449,1.803,1.021,3.52,1.704,5.124C28.729,46.602,28.157,48.317,27.708,50.119z M60.1,26.62  c-0.236-0.004-0.471-0.012-0.708-0.012c-2.437,0-4.788,0.231-7.03,0.645c-1.292-1.877-2.792-3.704-4.515-5.427  c-0.175-0.174-0.353-0.34-0.528-0.51c3.088-2.065,6.258-3.531,9.294-4.375C58.166,19.687,59.374,22.97,60.1,26.62z M48.974,26.509  c0.4,0.4,0.776,0.81,1.154,1.219c-1.801,0.449-3.515,1.021-5.117,1.705c-1.611-0.687-3.334-1.261-5.146-1.711  c0.377-0.409,0.754-0.818,1.154-1.218c1.282-1.283,2.614-2.455,3.974-3.513C46.355,24.05,47.689,25.224,48.974,26.509z   M42.145,21.818c-1.724,1.724-3.224,3.55-4.517,5.428c-2.232-0.41-4.574-0.639-7-0.639c-0.246,0-0.489,0.008-0.734,0.013  c0.724-3.647,1.931-6.929,3.483-9.673c3.033,0.842,6.201,2.307,9.287,4.368C42.491,21.483,42.316,21.646,42.145,21.818z   M29.151,53.605c1.594,0.958,3.213,1.767,4.832,2.418c0.65,1.618,1.459,3.237,2.416,4.83c-0.551,0.022-1.101,0.046-1.662,0.046  c-1.817,0-3.59-0.113-5.302-0.327c-0.216-1.717-0.33-3.495-0.33-5.316C29.106,54.699,29.129,54.153,29.151,53.605z M29.898,63.406  c0.243,0.005,0.485,0.013,0.73,0.013c2.433,0,4.78-0.23,7.018-0.644c1.291,1.874,2.788,3.697,4.509,5.418  c0.167,0.167,0.336,0.325,0.504,0.487c-3.086,2.061-6.254,3.523-9.288,4.364C31.825,70.309,30.622,67.039,29.898,63.406z   M41.027,63.508c-0.397-0.396-0.77-0.804-1.144-1.209c1.804-0.45,3.52-1.023,5.125-1.707c1.596,0.681,3.303,1.252,5.097,1.701  c-0.367,0.397-0.732,0.796-1.121,1.185c-1.29,1.289-2.63,2.468-3.999,3.531C43.63,65.953,42.305,64.786,41.027,63.508z   M47.857,68.164c1.713-1.712,3.203-3.527,4.491-5.392c2.245,0.414,4.602,0.646,7.043,0.646c0.235,0,0.468-0.008,0.701-0.012  c-0.726,3.643-1.933,6.919-3.485,9.659c-3.035-0.845-6.205-2.312-9.292-4.378C47.496,68.514,47.679,68.344,47.857,68.164z   M68.677,42.673c-0.164-0.17-0.324-0.341-0.492-0.509c-1.723-1.722-3.548-3.221-5.424-4.513c0.412-2.237,0.643-4.584,0.643-7.016  c0-0.244-0.008-0.484-0.013-0.726c3.641,0.721,6.917,1.923,9.66,3.47C72.207,36.414,70.741,39.584,68.677,42.673z M44.997,8.603  c3.499,0,6.731,1.865,9.356,5.019c-3.185,1.278-6.375,3.151-9.361,5.614c-2.985-2.46-6.174-4.331-9.355-5.608  C38.26,10.47,41.495,8.603,44.997,8.603z M19.253,19.26c2.474-2.474,6.08-3.441,10.167-3.066c-1.348,3.156-2.271,6.747-2.642,10.601  c-3.851,0.371-7.438,1.293-10.591,2.641C15.81,25.345,16.776,21.736,19.253,19.26z M8.596,45.012c0-3.501,1.868-6.736,5.026-9.361  c1.277,3.18,3.146,6.367,5.605,9.351c-2.462,2.99-4.333,6.184-5.608,9.37C10.463,51.746,8.596,48.513,8.596,45.012z M19.262,70.729  c-2.468-2.469-3.436-6.062-3.068-10.136c3.152,1.346,6.737,2.268,10.586,2.639c0.372,3.84,1.292,7.418,2.634,10.564  C25.333,74.167,21.734,73.2,19.262,70.729z M44.997,81.399c-3.503,0-6.741-1.869-9.367-5.031c3.183-1.274,6.373-3.145,9.359-5.604  c2.985,2.465,6.176,4.339,9.36,5.618C51.726,79.535,48.494,81.399,44.997,81.399z M70.751,70.758  c-2.478,2.479-6.09,3.444-10.184,3.065c1.349-3.152,2.273-6.739,2.646-10.59c3.854-0.369,7.445-1.29,10.603-2.637  C74.19,64.681,73.225,68.284,70.751,70.758z M76.387,54.386c-1.28-3.192-3.157-6.392-5.628-9.386  c2.465-2.989,4.338-6.183,5.616-9.37c3.173,2.629,5.05,5.872,5.05,9.382C81.425,48.519,79.553,51.758,76.387,54.386z"></path></g><g id="SvgjsG1263" featurekey="nameFeature-0" transform="matrix(1.2983061075210571,0,0,1.2983061075210571,-3.115935731410545,147.9517257787935)" fill="#ffffff"><path d="M29.96 14 l-2.8 3.28 q-1.64 -1.68 -3.92 -2.64 t-4.8 -0.96 q-3.28 0 -5.98 1.48 t-4.22 4.04 q-1.56 2.68 -1.56 5.96 q0 3.12 1.68 5.76 q1.6 2.48 4.3 3.94 t5.82 1.46 q2.88 0 5.36 -1.24 t4.12 -3.44 l2.68 3.64 q-2.28 2.56 -5.46 3.98 t-6.74 1.42 q-4.44 0 -8.16 -2.16 q-3.64 -2.08 -5.72 -5.72 q-2.16 -3.72 -2.16 -8.16 q0 -4.28 2.28 -7.88 q2.16 -3.44 5.86 -5.46 t7.94 -2.02 q3.32 0 6.32 1.28 q2.92 1.2 5.16 3.44 z M63.82599999999999 24.880000000000003 q0 -3.2 -1.64 -5.8 q-1.56 -2.52 -4.26 -3.96 t-5.86 -1.44 q-3.28 0 -5.98 1.48 t-4.22 4.04 q-1.56 2.68 -1.56 5.96 q0 3.12 1.68 5.76 q1.6 2.48 4.3 3.94 t5.84 1.46 t5.84 -1.52 t4.26 -4.08 q1.6 -2.68 1.6 -5.84 z M68.146 25.119999999999997 q0 4.32 -2.24 7.96 q-2.16 3.48 -5.86 5.54 t-7.98 2.06 q-4.44 0 -8.16 -2.16 q-3.64 -2.08 -5.72 -5.72 q-2.16 -3.72 -2.16 -8.16 q0 -4.28 2.28 -7.88 q2.16 -3.44 5.86 -5.46 t7.94 -2.02 q4.36 0 8.08 2.12 q3.64 2.08 5.76 5.64 q2.2 3.72 2.2 8.08 z M76.812 14.36 l-3.48 -4.2 l5.64 0 l19.16 22.8 l0 -22.8 l4.4 0 l0 29.84 l-4.32 0 l-17.12 -20.52 l0 20.52 l-4.28 0 l0 -25.64 z M113.198 14.36 l-3.48 -4.2 l5.64 0 l19.16 22.8 l0 -22.8 l4.4 0 l0 29.84 l-4.32 0 l-17.12 -20.52 l0 20.52 l-4.28 0 l0 -25.64 z M153.06399999999996 28.04 l0 7.6 l18.4 0 l0 4.36 l-22.76 0 l0 -29.84 l21 0 l0 4.4 l-16.64 0 l0 9.04 q1.24 -0.72 2.76 -0.96 q1.12 -0.2 2.88 -0.2 l6.52 0 l0 4.44 l-6.52 0 q-1.64 0 -2.88 0.2 q-1.52 0.28 -2.76 0.96 z M205.01 14 l-2.8 3.28 q-1.64 -1.68 -3.92 -2.64 t-4.8 -0.96 q-3.28 0 -5.98 1.48 t-4.22 4.04 q-1.56 2.68 -1.56 5.96 q0 3.12 1.68 5.76 q1.6 2.48 4.3 3.94 t5.82 1.46 q2.88 0 5.36 -1.24 t4.12 -3.44 l2.68 3.64 q-2.28 2.56 -5.46 3.98 t-6.74 1.42 q-4.44 0 -8.16 -2.16 q-3.64 -2.08 -5.72 -5.72 q-2.16 -3.72 -2.16 -8.16 q0 -4.28 2.28 -7.88 q2.16 -3.44 5.86 -5.46 t7.94 -2.02 q3.32 0 6.32 1.28 q2.92 1.2 5.16 3.44 z M235.27599999999998 14.559999999999999 l-10.52 0 l0 25.44 l-4.24 0 l0 -25.44 l-10.64 0 l0 -4.4 l25.4 0 l0 4.4 z M267.662 24.880000000000003 q0 -3.2 -1.64 -5.8 q-1.56 -2.52 -4.26 -3.96 t-5.86 -1.44 q-3.28 0 -5.98 1.48 t-4.22 4.04 q-1.56 2.68 -1.56 5.96 q0 3.12 1.68 5.76 q1.6 2.48 4.3 3.94 t5.84 1.46 t5.84 -1.52 t4.26 -4.08 q1.6 -2.68 1.6 -5.84 z M271.98199999999997 25.119999999999997 q0 4.32 -2.24 7.96 q-2.16 3.48 -5.86 5.54 t-7.98 2.06 q-4.44 0 -8.16 -2.16 q-3.64 -2.08 -5.72 -5.72 q-2.16 -3.72 -2.16 -8.16 q0 -4.28 2.28 -7.88 q2.16 -3.44 5.86 -5.46 t7.94 -2.02 q4.36 0 8.08 2.12 q3.64 2.08 5.76 5.64 q2.2 3.72 2.2 8.08 z"></path></g><g id="SvgjsG1264" featurekey="sloganFeature-0" transform="matrix(0.9322401881217957,0,0,0.9322401881217957,34.19883340681149,215.69252331123772)" fill="#ffffff"><path d="M8.0762 20.19531 c-4.1504 0 -7.2168 -2.8223 -7.2168 -7.2559 s3.0664 -7.2461 7.2168 -7.2461 c3.1445 0 5.6641 1.6113 6.6699 4.2871 l-2.7344 0.99609 c-0.625 -1.6406 -2.1191 -2.5879 -3.9355 -2.5879 c-2.4316 0 -4.2969 1.6992 -4.2969 4.5508 s1.8652 4.5605 4.2969 4.5605 c1.8164 0 3.3105 -0.95703 3.9355 -2.5977 l2.7344 0.99609 c-1.0059 2.6758 -3.5254 4.2969 -6.6699 4.2969 z M25.32229375 20.19531 c-4.1504 0 -7.2168 -2.832 -7.2168 -7.2559 c0 -4.4336 3.0664 -7.2461 7.2168 -7.2461 c4.1406 0 7.207 2.8125 7.207 7.2461 c0 4.4238 -3.0664 7.2559 -7.207 7.2559 z M25.32229375 17.5098 c2.4316 0 4.2969 -1.709 4.2969 -4.5703 c0 -2.8516 -1.8652 -4.5508 -4.2969 -4.5508 s-4.2969 1.6992 -4.2969 4.5508 c0 2.8613 1.8652 4.5703 4.2969 4.5703 z M46.787265625 5.888999999999999 l2.9199 0 l0 14.111 l-3.3887 0 l-6.25 -10.088 l0 10.088 l-2.9199 0 l0 -14.111 l3.3496 0 l6.2891 10.029 l0 -10.029 z M64.92203125 5.888999999999999 l2.9199 0 l0 14.111 l-3.3887 0 l-6.25 -10.088 l0 10.088 l-2.9199 0 l0 -14.111 l3.3496 0 l6.2891 10.029 l0 -10.029 z M81.601796875 8.467 l-5.2344 0 l0 3.2031 l4.6387 0 l0 2.5488 l-4.6387 0 l0 3.1934 l5.2344 0 l0 2.5879 l-8.1836 0 l0 -14.111 l8.1836 0 l0 2.5781 z M92.792996875 20.19531 c-4.1504 0 -7.2168 -2.8223 -7.2168 -7.2559 s3.0664 -7.2461 7.2168 -7.2461 c3.1445 0 5.6641 1.6113 6.6699 4.2871 l-2.7344 0.99609 c-0.625 -1.6406 -2.1191 -2.5879 -3.9355 -2.5879 c-2.4316 0 -4.2969 1.6992 -4.2969 4.5508 s1.8652 4.5605 4.2969 4.5605 c1.8164 0 3.3105 -0.95703 3.9355 -2.5977 l2.7344 0.99609 c-1.0059 2.6758 -3.5254 4.2969 -6.6699 4.2969 z M111.972890625 5.888999999999999 l0 2.5781 l-3.3496 0 l0 11.533 l-2.9004 0 l0 -11.533 l-3.3691 0 l0 -2.5781 l9.6191 0 z M117.500009375 20.19531 c-0.86914 0 -1.6016 -0.72266 -1.6016 -1.6016 s0.73242 -1.6211 1.6016 -1.6211 c0.88867 0 1.6211 0.74219 1.6211 1.6211 s-0.73242 1.6016 -1.6211 1.6016 z M136.289090625 20.19531 c-3.0273 0 -5.3906 -1.4551 -5.8203 -4.1016 l3.0273 -0.69336 c0.19531 1.582 1.3574 2.4023 2.9102 2.4023 c1.1914 0 2.1387 -0.52734 2.1289 -1.7188 c-0.0097656 -1.3281 -1.5723 -1.748 -3.291 -2.2754 c-2.0703 -0.64453 -4.2871 -1.4063 -4.2871 -4.0039 c0 -2.627 2.1484 -4.1113 4.9805 -4.1113 c2.4805 0 4.9805 1.0059 5.5469 3.7109 l-2.832 0.70313 c-0.26367 -1.4063 -1.2109 -2.0215 -2.5391 -2.0215 c-1.1816 0 -2.1875 0.48828 -2.1875 1.6504 c0 1.084 1.3867 1.4453 2.9883 1.9238 c2.1289 0.64453 4.6484 1.4648 4.6484 4.2773 c0 2.998 -2.5098 4.2578 -5.2734 4.2578 z M155.088234375 5.888999999999999 l2.9297 0 l0 14.111 l-2.9297 0 l0 -5.8008 l-5.9668 0 l0 5.8008 l-2.9297 0 l0 -14.111 l2.9297 0 l0 5.7617 l5.9668 0 l0 -5.7617 z M173.037578125 20 l-1.0254 -2.9102 l-5.9277 0 l-1.0254 2.9102 l-2.998 0 l5.1953 -14.111 l3.584 0 l5.1953 14.111 l-2.998 0 z M166.943378125 14.6387 l4.209 0 l-2.0996 -5.9863 z M187.529253125 20 l-3.6719 -6.2109 l-0.84961 0 l0 6.2109 l-2.9297 0 l0 -14.111 l5.1172 0 c3.1934 0 4.541 1.8848 4.541 4.2188 c0 1.8945 -1.0742 3.125 -2.9883 3.5352 l4.248 6.3574 l-3.4668 0 z M183.007853125 8.32 l0 3.3691 l1.7285 0 c1.5625 0 2.1973 -0.66406 2.1973 -1.6797 c0 -1.0059 -0.63477 -1.6895 -2.1973 -1.6895 l-1.7285 0 z M203.2521875 8.467 l-5.2344 0 l0 3.2031 l4.6387 0 l0 2.5488 l-4.6387 0 l0 3.1934 l5.2344 0 l0 2.5879 l-8.1836 0 l0 -14.111 l8.1836 0 l0 2.5781 z M209.5800875 20.19531 c-0.86914 0 -1.6016 -0.72266 -1.6016 -1.6016 s0.73242 -1.6211 1.6016 -1.6211 c0.88867 0 1.6211 0.74219 1.6211 1.6211 s-0.73242 1.6016 -1.6211 1.6016 z M231.86546875 5.888999999999999 l0 2.5781 l-3.3496 0 l0 11.533 l-2.9004 0 l0 -11.533 l-3.3691 0 l0 -2.5781 l9.6191 0 z M244.9026875 5.888999999999999 l2.9297 0 l0 14.111 l-2.9297 0 l0 -5.8008 l-5.9668 0 l0 5.8008 l-2.9297 0 l0 -14.111 l2.9297 0 l0 5.7617 l5.9668 0 l0 -5.7617 z M260.85933125 20 l-3.6719 -6.2109 l-0.84961 0 l0 6.2109 l-2.9297 0 l0 -14.111 l5.1172 0 c3.1934 0 4.541 1.8848 4.541 4.2188 c0 1.8945 -1.0742 3.125 -2.9883 3.5352 l4.248 6.3574 l-3.4668 0 z M256.33793125 8.32 l0 3.3691 l1.7285 0 c1.5625 0 2.1973 -0.66406 2.1973 -1.6797 c0 -1.0059 -0.63477 -1.6895 -2.1973 -1.6895 l-1.7285 0 z M268.398465625 20 l0 -14.111 l2.9297 0 l0 14.111 l-2.9297 0 z M285.869359375 5.888999999999999 l3.1152 0 l-5.2148 14.111 l-3.2227 0 l-5.1855 -14.111 l3.1055 0 l3.7012 10.693 z M301.211171875 8.467 l-5.2344 0 l0 3.2031 l4.6387 0 l0 2.5488 l-4.6387 0 l0 3.1934 l5.2344 0 l0 2.5879 l-8.1836 0 l0 -14.111 l8.1836 0 l0 2.5781 z"></path></g></svg>