<svg width="141" height="160" viewBox="0 0 141 160" fill="none" xmlns="http://www.w3.org/2000/svg">
<g clip-path="url(#clip0_6_53)">
<path fill-rule="evenodd" clip-rule="evenodd" d="M27.1215 125.917C27.1215 125.917 55.4414 137.491 76.8909 117.975C89.3133 106.72 84.8796 94.1481 77.2105 90.4365C77.2105 90.4365 95.0651 83.3325 98.5003 106.321C101.616 127.194 65.1875 140.284 71.2989 160C71.2989 160 54.2031 156.648 56.0804 141.841C56.0804 141.841 36.3085 143.437 27.1215 125.917Z" fill="#AC47F5"/>
<path fill-rule="evenodd" clip-rule="evenodd" d="M89.553 140.803C89.553 140.803 113.519 121.846 107.048 93.5894C103.333 77.3061 90.1921 74.9913 83.202 79.8603C83.202 79.8603 85.7584 60.8231 107.488 69.1245C127.26 76.6675 120.789 114.782 141 119.132C141 119.132 129.656 132.382 117.713 123.482C117.713 123.482 109.405 141.442 89.553 140.803Z" fill="#FEE253"/>
<path fill-rule="evenodd" clip-rule="evenodd" d="M133.211 93.7491C133.211 93.7491 128.418 63.577 100.617 55.3954C84.56 50.646 76.0921 60.9429 76.9309 69.4038C76.9309 69.4038 61.5926 57.79 79.4872 42.9434C95.7042 29.4537 125.822 53.759 139.522 38.3138C139.522 38.3138 145.474 54.677 131.893 60.7433C131.893 60.7433 143.476 76.7872 133.211 93.7491Z" fill="#AC47F5"/>
<path fill-rule="evenodd" clip-rule="evenodd" d="M113.599 32.6865C113.599 32.6865 84.9196 22.0703 64.149 42.225C52.1261 53.8788 56.9193 66.3308 64.7082 69.763C64.7082 69.763 47.0932 77.4258 42.9391 54.5572C39.1046 33.764 75.0935 19.5161 68.3431 0C68.3431 0 85.5587 2.83362 84.1607 17.6403C84.1607 17.6403 103.813 15.4452 113.599 32.6865Z" fill="#AC47F5"/>
<path fill-rule="evenodd" clip-rule="evenodd" d="M50.6881 19.7955C50.6881 19.7955 27.3612 39.551 34.7507 67.568C39.0247 83.7316 52.2459 85.6473 59.0363 80.5388C59.0363 80.5388 57.079 99.6558 35.0703 92.0728C15.0986 85.2083 20.2912 46.8546 0 43.1828C0 43.1828 10.8646 29.6134 23.1272 38.0743C23.1272 38.0743 30.8363 19.8753 50.6881 19.7955Z" fill="#FEE253"/>
<path fill-rule="evenodd" clip-rule="evenodd" d="M8.58781 68.2863C8.58781 68.2863 14.3796 98.2988 42.4198 105.602C58.6368 109.793 66.7453 99.2167 65.6668 90.7957C65.6668 90.7957 81.3646 101.851 63.9892 117.336C48.1717 131.305 17.2955 107.957 4.07421 123.881C4.07421 123.881 -2.43656 107.718 10.9445 101.252C10.9445 101.252 -1.07848 85.5675 8.58781 68.2863Z" fill="#AC47F5"/>
</g>
<defs>
<clipPath id="clip0_6_53">
<rect width="141" height="160" fill="white"/>
</clipPath>
</defs>
</svg>
